<svg id="Layer_1" data-name="Layer 1" xmlns="http://www.w3.org/2000/svg" viewBox="0 0 371.8723 343.0455"><defs><style>.cls-1{fill:#17756a;}.cls-2{fill:#00ce97;}.cls-3{fill:#80f1c6;}.cls-4{fill:#00a07c;}.cls-5{opacity:0.15;}.cls-26,.cls-46,.cls-6{fill:#fff;}.cls-7{fill:#ca9674;}.cls-8{fill:#ffc9a6;}.cls-9{opacity:0.32;}.cls-10{fill:#a1785c;}.cls-11,.cls-23{fill:#353535;}.cls-11,.cls-22{opacity:0.33;}.cls-12{fill:#ededed;}.cls-13{fill:#cfccd6;}.cls-14{fill:#92654c;}.cls-15{fill:#b17c5b;}.cls-16{fill:#a4a4a4;}.cls-17,.cls-48{fill:#122041;}.cls-18{fill:#d1d6ff;}.cls-19{fill:#b0b5f7;}.cls-20{fill:#929ad5;}.cls-21{opacity:0.24;}.cls-24{fill:#8080ed;}.cls-25{fill:#8e9cf9;}.cls-26{opacity:0.6;}.cls-27{fill:#f3f3f3;}.cls-28{fill:#202732;}.cls-29{fill:#303848;}.cls-30{fill:#ffb69b;}.cls-31{fill:#9b72b2;}.cls-32{opacity:0.21;}.cls-33{fill:#ff6e61;}.cls-34{fill:#cdcbd1;}.cls-35{fill:#9f8a9a;}.cls-36{opacity:0.35;}.cls-37{fill:#48415f;}.cls-38{fill:#af6637;}.cls-39{fill:#dcb3f6;}.cls-40{fill:#ffd2b3;}.cls-41{fill:#f9bb9a;}.cls-42{fill:#f4c150;}.cls-43{fill:#00c8fa;}.cls-44{fill:#d8d8d8;}.cls-45{fill:#82abe7;}.cls-46{opacity:0.64;}.cls-47{fill:#ffbd36;}.cls-48{opacity:0.23;}.cls-49{fill:#b8b6c2;}</style></defs><title>developer-9</title><path class="cls-1" d="M386.0461,271.8915c-1.2546-1.94-4.2152-1.7614-6.27-.7057s-3.8237,2.7516-6.0758,3.266c-2.2755.52-4.6921-.2591-6.9744.2293-3.4365.7355-5.761,4.1273-9.134,5.1142-2.3539.6886-5.0194.138-7.2111,1.2386-2.7173,1.3643-3.7363,4.7373-6.0191,6.7457-3.2064,2.821-8.0009,2.3663-12.2461,2.8319-10.3427,1.134-18.82,8.4-26.5785,15.3327,5.5914,3.046,11.2131,5.763,17.5564,5.211s14.014-3.1495,18.3916-9.2348c1.812-2.5189,6.6361.0305,9.4562-1.2638a21.28,21.28,0,0,0,6.7271-4.1746c2.228-2.3222,3.5243-5.7457,6.49-6.9941,2.5466-1.0719,5.71-.2066,8.0408-1.6905,2.1743-1.3844,2.7913-4.2754,4.5015-6.204,1.66-1.8719,4.1851-2.6725,6.29-4.0245s3.9427-3.9084,2.9892-6.2214" transform="translate(-14.3667 -11.1983)"/><path class="cls-2" d="M360.2685,245.157c-1.85-1.169-4.3242.1609-5.6712,1.8852s-2.1939,3.8854-3.9258,5.2227c-1.75,1.3512-4.1369,1.6419-5.9051,2.969-2.6622,1.9981-3.3129,5.8381-5.8206,8.0271-1.75,1.5276-4.2605,2.1137-5.7075,3.9309-1.7939,2.2529-1.3295,5.5579-2.4939,8.192-1.6356,3.7-5.9384,5.2142-9.4033,7.3016-8.4415,5.0857-12.8422,14.7017-16.7574,23.7457,6.018.3966,11.931.4984,17.1654-2.4973s10.797-8.2774,12.1422-15.2491c.5567-2.8859,5.7176-2.6112,7.6277-4.8449a20.1585,20.1585,0,0,0,4.1246-6.2627c.9925-2.8821.7465-6.3407,2.8006-8.5928,1.7634-1.9336,4.8273-2.447,6.2412-4.6491,1.3192-2.0544.7007-4.7852,1.4045-7.123.6831-2.269,2.5361-3.961,3.8085-5.96s1.8364-4.9272.0973-6.5368" transform="translate(-14.3667 -11.1983)"/><path class="cls-3" d="M308.463,306.5827A507.9378,507.9378,0,0,0,358.4769,247.45c.2731-.3781-.3452-.7218-.6193-.362-15.6678,20.5747-32.1206,40.2291-49.6,59.2891-.126.1373.0733.3394.2055.2055Z" transform="translate(-14.3667 -11.1983)"/><path class="cls-4" d="M345.2056,201.0891c-2.9027-.5548-5.3555,2.34-6.1958,5.1737s-.8363,5.9684-2.3517,8.5056c-1.5312,2.5634-4.3879,4.1093-5.954,6.6516-2.3582,3.8278-1.2771,8.9759-3.3465,12.9672-1.4442,2.7853-4.31,4.7634-5.23,7.7628-1.1407,3.7188,1.0773,7.6432.9161,11.53-.2264,5.4588-4.8854,9.49-8.2082,13.827-8.0953,10.5661-8.8715,24.8284-9.32,38.1316,7.76-2.4772,15.2423-5.2733,20.34-11.6267s9.4775-15.7425,7.7209-25.17c-.7271-3.9023,5.8951-6.1091,7.1916-9.861,1.1095-3.2111,2.2337-6.5167,2.0872-9.911-.1776-4.1132-2.197-8.3386-.729-12.185,1.26-3.3023,4.8574-5.4625,5.5457-8.9295.6422-3.2345-1.4855-6.3608-1.7569-9.6472-.2634-3.19,1.2289-6.2326,1.84-9.3742s-.1283-7.1011-3.11-8.2641" transform="translate(-14.3667 -11.1983)"/><path class="cls-1" d="M305.2973,223.2229c-2.0887.2432-3.1354,2.7321-3.1009,4.8346s.7067,4.23.22,6.2754c-.4919,2.0669-2.1009,3.7262-2.6211,5.7862-.7834,3.1018,1.05,6.3653.4971,9.5163-.3856,2.199-1.9084,4.1534-1.8925,6.3859.02,2.7677,2.3631,4.9579,3.0835,7.63,1.0119,3.7536-1.29,7.4847-2.6193,11.1379-3.2389,8.9-.7206,18.747,1.8151,27.8726,4.7383-3.3383,9.22-6.8337,11.3237-12.2346s3.0719-12.7091-.1334-18.7334c-1.3267-2.4936,2.6971-5.4054,2.776-8.2289a19.3749,19.3749,0,0,0-.6993-7.173c-.9988-2.7539-3.2717-5.1909-3.0964-8.1151.15-2.5106,2.1307-4.7449,1.8577-7.2452-.2547-2.3326-2.3664-4-3.2524-6.1731-.86-2.1088-.4965-4.4929-.7527-6.7558s-1.6031-4.7925-3.8754-4.9454" transform="translate(-14.3667 -11.1983)"/><path class="cls-3" d="M310.6415,306.8638c13.0072-2.1813,24.7889-7.6653,36.3315-13.8463,12.2431-6.5562,24.3694-12.7547,37.0673-18.3877.2867-.1271.0824-.6161-.2149-.51-25.1659,9.0016-46.5833,27.6612-73.2637,32.4545-.19.0342-.1088.3209.08.2892Z" transform="translate(-14.3667 -11.1983)"/><path class="cls-3" d="M307.8173,303.94A129.7941,129.7941,0,0,0,329.59,255.2875c2.0051-9.1348,3.1876-18.5377,6.6983-27.2688,3.3988-8.4531,8.7758-15.9917,10.2281-25.144.0746-.47-.6312-.6832-.7278-.2006-1.817,9.0758-6.9745,16.6317-10.3682,25.1053-3.2837,8.1993-4.4907,16.9725-6.2131,25.58a131.8412,131.8412,0,0,1-21.8758,50.2962c-.21.2973.2754.5732.4857.2839Z" transform="translate(-14.3667 -11.1983)"/><g class="cls-5"><path class="cls-6" d="M300.1776,302.1672c.1038-6.8755-5.3976-12.3791-10.4925-16.9969-10.9065-9.8849-22.6322-20.1852-37.1257-22.7543-11.42-2.0244-23.06,1.0555-34.2485,4.11l-57.8788,15.8011-95.9362,26.191-1.7685,3.24c-1.4134,7.7769,3.2055,7.7427,9.5152,12.5035s14.2605,6.788,22.0877,7.8883,15.787,1.39,23.4824,3.195c14.718,3.4522,27.8111,12.2873,42.6457,15.198,15.3526,3.0123,31.1453-.5643,46.38-4.1253,4.3018-1.0054,8.6149-2.0155,12.9239-3.0584a60.85,60.85,0,0,0,59.0494,5.8008c5.0862-2.29,10.495-6.4911,9.9813-12.0452-.4066-4.3948-4.4195-7.5167-8.3359-9.5516a50.2157,50.2157,0,0,0-5.2885-2.3586c3.8177-1.8141,7.57-3.7723,11.24-5.9051C293.0456,315.4429,300.0616,309.842,300.1776,302.1672Z" transform="translate(-14.3667 -11.1983)"/></g><path class="cls-2" d="M58.2128,138.2949c-2.0287.82-2.393,3.6053-1.7789,5.7054s1.8747,4.0492,1.95,6.2359c.076,2.2095-1.0811,4.3177-1.0354,6.528.0688,3.328,2.8072,6.0973,3.1213,9.4112.2191,2.3126-.77,4.6932-.139,6.9288.7825,2.7715,3.7372,4.3233,5.1965,6.8061,2.05,3.4874.7684,7.8653.4413,11.8971-.7969,9.8228,4.4433,19.0084,9.5023,27.4658,3.8343-4.6552,7.3678-9.3974,7.99-15.3961s-.42-13.5984-5.2963-18.76c-2.0184-2.1363,1.2165-6.1667.5176-9.0214a20.1584,20.1584,0,0,0-2.6785-7.0043c-1.761-2.488-4.7131-4.3067-5.3431-7.2891-.5409-2.56.83-5.348-.1327-7.7814-.8984-2.27-3.4768-3.3616-4.9644-5.2975-1.4438-1.8789-1.7363-4.3711-2.617-6.571s-2.9293-4.3668-5.2513-3.894" transform="translate(-14.3667 -11.1983)"/><path class="cls-3" d="M81.6042,209.4022c-7.4364-23.0366-14.3257-46.3132-22.3279-69.16-.1252-.3574-.684-.2135-.5741.1582,6.8652,23.2137,14.8871,46.1249,22.3235,69.1613.1181.366.6976.2094.5785-.16Z" transform="translate(-14.3667 -11.1983)"/><path class="cls-4" d="M22.1627,127.142c-2.2349,1.9337-1.4837,5.6531.2184,8.069s4.1645,4.3563,5.2157,7.1183c1.0621,2.7906.5041,5.99,1.5279,8.7954,1.5415,4.2234,6.251,6.5667,8.1,10.665,1.29,2.86,1.0655,6.3347,2.8486,8.9162,2.2106,3.2,6.6649,3.8932,9.6144,6.4291,4.1428,3.5618,4.4175,9.7167,5.76,15.0126C58.72,205.05,69.4291,214.501,79.589,223.1007c2.8671-7.6244,5.312-15.2288,3.4873-23.1674S76.6,182.7371,68.1133,178.2706c-3.5127-1.8489-1.1386-8.413-3.2788-11.7562-1.8316-2.8614-3.7283-5.7929-6.4825-7.7822-3.3374-2.4107-7.9048-3.4458-10.0127-6.9822-1.81-3.0363-1.2747-7.1979-3.5682-9.8873-2.14-2.5091-5.9119-2.7779-8.6588-4.6024-2.666-1.7708-4.1283-4.8282-6.2147-7.2552s-5.6513-4.3016-8.4124-2.6832" transform="translate(-14.3667 -11.1983)"/><path class="cls-1" d="M14.7881,172.1775c-1.1041,1.79.2,4.1539,1.871,5.43s3.7569,2.0678,5.06,3.7181c1.3168,1.6674,1.6212,3.9585,2.915,5.6439,1.9481,2.5376,5.6452,3.1226,7.775,5.51,1.4864,1.6658,2.0759,4.0724,3.8373,5.4439,2.1839,1.7,5.3552,1.22,7.8987,2.3111,3.5725,1.5332,5.073,5.6523,7.1153,8.96,4.9756,8.0591,14.2627,12.1877,22.9951,15.8556.3182-5.7874.3541-11.471-2.5794-16.47s-8.0676-10.2894-14.7816-11.5092c-2.7791-.5049-2.5692-5.4673-4.7357-7.28a19.3743,19.3743,0,0,0-6.0617-3.8983c-2.78-.9237-6.1012-.6511-8.2871-2.6014-1.8766-1.6746-2.402-4.6136-4.5331-5.9494-1.9881-1.2462-4.6059-.6233-6.86-1.2753-2.1877-.6326-3.8331-2.3957-5.7675-3.5976s-4.7543-1.7132-6.2829-.0251" transform="translate(-14.3667 -11.1983)"/><path class="cls-3" d="M16.4359,171.5343c9.9347,8.5953,20.2124,16.8035,30.3758,25.1252,9.8086,8.0313,21.0239,15.5043,28.7281,25.6938.1187.1569.3864.0126.2712-.1586-6.7109-9.97-17.8762-17.1763-27.0634-24.696-10.6836-8.7445-21.269-17.6366-32.1858-26.09-.0881-.0683-.2144.0493-.1259.1259Z" transform="translate(-14.3667 -11.1983)"/><path class="cls-3" d="M79.72,210.247a195.3959,195.3959,0,0,0-13.38-22.7834c-4.7661-6.7258-10.469-12.6584-15.8812-18.8516a102.762,102.762,0,0,1-15-22.8009c-3.3693-6.8278-7.0508-13.5181-13.69-17.6362-.34-.2107-.6318.3087-.31.53C29.2,134.0343,32.735,142.1067,36.83,150.2073a91.2555,91.2555,0,0,0,13.1232,18.91c5.5658,6.3718,11.4534,12.4541,16.3227,19.4,4.8983,6.9872,8.9028,14.52,13.0186,21.9783.1535.2782.5712.0317.425-.2484Z" transform="translate(-14.3667 -11.1983)"/><polygon class="cls-7" points="51.727 205.496 51.727 212.5 124.139 240.543 300.221 189.699 299.055 183.879 51.727 205.496"/><polygon class="cls-8" points="51.778 205.268 123.787 233.709 299.055 183.879 234.218 158.207 51.778 205.268"/><g class="cls-9"><path class="cls-10" d="M77.8434,228.8489C76.06,215.7963,95.535,215.997,101.03,207.0893c.2256-.3656-.35-.7-.5747-.3359-5.2661,8.5382-25.6681,8.9559-23.1406,22.2413.0671.3528.5753.1944.5288-.1458Z" transform="translate(-14.3667 -11.1983)"/><path class="cls-10" d="M87.8212,232.38c11.3605-7.217,30.6153-12.2585,30.0281-29.0335-.0135-.385-.6141-.3867-.6,0,.6052,16.6419-18.5006,21.2945-29.6244,28.6975-.207.1377-.0166.4712.1963.336Z" transform="translate(-14.3667 -11.1983)"/><path class="cls-10" d="M97.7029,236.84c9.8555-11.2469,21.65-19.4967,34.8767-26.3583,14.0213-7.2736,28.7229-13.1865,42.1036-21.6607.3532-.2236.0282-.786-.3288-.5626-25.1058,15.71-58.45,23.6584-76.8245,48.4482-.0742.1.0909.2271.173.1334Z" transform="translate(-14.3667 -11.1983)"/><path class="cls-10" d="M254.2975,172.5231c-9.6125,12.172-24.3437,16.5737-39.0168,19.2987-7.94,1.4746-15.9722,2.6022-23.7539,4.8173-6.6591,1.8955-12.8326,4.8228-19.0836,7.747a89.8825,89.8825,0,0,1-22.2652,7.4173c-6.8321,1.2462-13.842,2.0765-20.2647,4.88a37.9,37.9,0,0,0-20.96,24.3484.27.27,0,0,0,.52.1433c4.2309-14.7394,15.9213-23.8165,30.5782-26.9586,7.1061-1.5233,14.359-2.21,21.276-4.5506,6.4255-2.1744,12.4071-5.3913,18.5954-8.1288,14.7088-6.5067,30.4976-7.3112,45.8611-11.39,11.0241-2.9267,21.9306-7.9554,28.8343-17.3775.1356-.185-.1766-.4289-.32-.2471Z" transform="translate(-14.3667 -11.1983)"/><path class="cls-10" d="M118.919,243.3976a24.7626,24.7626,0,0,1,7.7488-19.709c6.3767-5.9408,14.1967-7.0251,22.5495-5.8616,7.0738.9853,14.0055,2.9587,21.21,2.0649,6.2848-.78,12.2366-3.306,17.7674-6.2933,6.7238-3.6317,13.0024-8.0443,19.8569-11.442,7.252-3.5947,15.0364-5.6615,22.8752-7.5223,15.1192-3.5891,29.7256-7.9123,43.8847-14.3951.3673-.1682.0483-.709-.317-.5424-16.45,7.5-33.3614,11.3568-50.7012,16.03a85.6959,85.6959,0,0,0-20.12,8.0527c-7.7881,4.3983-15.072,9.7563-23.4424,13.0576-8.9536,3.5314-17.2116,3.021-26.51,1.36-6.3245-1.13-12.9273-2.15-19.1307.1079a24.8987,24.8987,0,0,0-15.9332,25.0919c.0148.166.2728.17.2625,0Z" transform="translate(-14.3667 -11.1983)"/><path class="cls-10" d="M279.9343,182.2946c-3.2909,8.6028-14.6563,9.2023-22.4257,9.9182-7.1464.6586-14.339.824-21.454,1.8146-14.5894,2.0312-25.585,9.1552-37.3325,17.5462-6.272,4.48-12.6727,8.8072-19.9178,11.5694-7.4223,2.83-15.2656,4.2587-22.9817,6.0265-12.5617,2.878-25.1327,6.9944-33.4763,17.3923a.2731.2731,0,1,0,.4307.3323c10.4737-13.638,28.3081-15.922,43.9073-19.6882a80.0351,80.0351,0,0,0,19.993-7.2714c6.4312-3.5319,12.2465-8.0545,18.2355-12.262,6.48-4.5525,13.2243-8.7705,20.8823-11.0316,7.9684-2.3528,16.3217-2.8095,24.5608-3.4,9.19-.6591,25.9448-.0835,29.7683-10.8937.0426-.12-.1452-.169-.19-.0523Z" transform="translate(-14.3667 -11.1983)"/><path class="cls-10" d="M181.3064,186.8728c-1.863,1.5108-16.6945,10.7781-10.5133,13.5751,2.4367,1.1026,6.0969-.651,8.2664-1.6615,5.1282-2.3885,9.4712-6.1784,14.7791-8.2288,10.0494-3.882,21.2941-2.8291,31.5671-6.076A50.4,50.4,0,0,0,248.788,169.61c.24-.28-.1664-.69-.4076-.4077a48.3654,48.3654,0,0,1-20.1561,13.77c-7.9529,2.976-16.1315,3.463-24.456,4.6705a46.7172,46.7172,0,0,0-19.0332,7.2928c-1.5083.9422-3.0115,1.91-4.5957,2.7223a26.3751,26.3751,0,0,1-4.0584,1.7527q-2.1889,1.3191-3.1114-1.5455-3.2786-1.85-.2027-3.2018,1.4661-1.2555,2.9319-2.5112,2.9263-2.5151,5.81-5.0767c.1394-.1244-.0619-.3159-.2022-.2021Z" transform="translate(-14.3667 -11.1983)"/><path class="cls-10" d="M166.4694,214.8792c11.1028,3.9028,18.2248-6.8083,26.931-11.4188,1.1733-.6213,6.7261-1.349,6.572-3.5693-.1155-1.6633-3.7589-1.4762-4.668-1.4332-4.8026.2274-10.0413,2.9268-14.3387,4.96-2.936,1.3892-5.8542,2.8872-8.6509,4.5418-.8161.4828-2.9993,1.3292-3.237,2.5782-1.0707,5.6274,13.1151-2.9562,13.9435-3.51.2312-.1545.0217-.5242-.22-.3764-2.4493,1.4974-6.378,4.4918-9.2406,4.6169l-1.6469.55q-2.19-2.2867-.1089-2.9723c.7425-.9505,2.7678-1.5629,3.8806-2.1622,2.6045-1.403,5.2478-2.7439,7.956-3.9369,2.3114-1.0182,7.2538-3.8024,9.9817-3.5291l4.3173,2.021-1.6241.4633c.6146-.53-3.8264,1.7494-3.1356,1.3818a41.06,41.06,0,0,0-5.6568,3.83c-6.1532,4.7327-12.6319,10.4919-21.0122,7.8108-.0985-.0315-.1383.12-.0424.1537Z" transform="translate(-14.3667 -11.1983)"/><path class="cls-10" d="M151.8494,248.4174c3.219-16.1538,22.69-15.9214,35.1172-19.8651,11.721-3.72,21.8082-11.0552,32.2038-17.3835,11.92-7.2563,23.9856-11.3224,37.7055-13.606,12.648-2.1052,25.4442-3.76,36.8437-10.0252.4259-.2341.0459-.8846-.3809-.6517-12.8815,7.0305-27.4779,8.1493-41.6391,10.8232-13.7556,2.5974-25.2882,8.0082-37.04,15.4757-5.7335,3.6432-11.4107,7.4184-17.476,10.4987-6.8242,3.4658-13.7691,5.3857-21.2121,6.9481-10.0946,2.119-22.2921,6.0793-24.262,17.7472-.0153.0908.1217.1312.14.0386Z" transform="translate(-14.3667 -11.1983)"/><path class="cls-10" d="M213.6884,231.3585c1.0146-11.352,13.2945-16.4213,22.5207-20.1237a162.6774,162.6774,0,0,1,23.496-7.1728c8.0283-1.8833,16.14-3.373,24.2336-4.9445,7.1021-1.379,14.06-2.7635,19.8526-7.3569.3207-.2543-.133-.7055-.4508-.4508-7.8184,6.2659-18.7156,7.052-28.2257,8.9123-9.2309,1.8056-18.4593,3.7229-27.4731,6.4371-8.2206,2.4754-16.548,5.5456-23.9522,9.9526-5.5325,3.293-10.3082,7.9523-10.4933,14.7467-.0087.3209.4644.3106.4922,0Z" transform="translate(-14.3667 -11.1983)"/><path class="cls-10" d="M235.47,223.5276c9.2988-10.5871,21.2553-17.7118,35.5149-18.8788,12.7261-1.0415,26.7481,2.87,37.85-5.3664.2779-.2061.0171-.6774-.2768-.4735-13.2616,9.1985-29.7174,3.0484-44.4893,6.3253-11.23,2.4912-21.959,8.91-28.9005,18.1605-.1306.1739.1585.396.3018.2329Z" transform="translate(-14.3667 -11.1983)"/></g><path class="cls-11" d="M230.6852,185.9959a4.3414,4.3414,0,0,0-1.6086,6.6148c.0945.1122.216.2058.3074.3305,1.9972,2.7232,6.8538,7.7258,8.1387,7.6771,2.3037-.0874,5.5684-3.7571,5.5376-4.61s-4.3979-7.0682-6.7684-9.2817A4.5482,4.5482,0,0,0,230.6852,185.9959Z" transform="translate(-14.3667 -11.1983)"/><path class="cls-12" d="M232.242,184.5122a4.3414,4.3414,0,0,0-1.6087,6.6148c.0946.1121.2161.2058.3075.33,1.9971,2.7233,6.8537,7.7259,8.1387,7.6771,2.3037-.0873,5.5684-3.7571,5.5377-4.61s-4.3979-7.0682-6.7685-9.2816A4.548,4.548,0,0,0,232.242,184.5122Z" transform="translate(-14.3667 -11.1983)"/><path class="cls-13" d="M233.1851,186.2285a1.2018,1.2018,0,0,1,1.3141.0869,3.5311,3.5311,0,0,1,.9053,1.0543.8653.8653,0,0,1,.1922.5087c-.0132.1842-.21.3613-.3766.2815a.4277.4277,0,0,1-.1339-.1195c-.569-.6746-1.3064-1.1538-1.8755-1.8284" transform="translate(-14.3667 -11.1983)"/><path class="cls-13" d="M244.3766,194.0937a4.409,4.409,0,0,1-2.2907,3.7972c-1.4375.7352-4.63.329-5.9813-.5864a21.0253,21.0253,0,0,1-3.4549-3.4687c-2.3328-2.653-4.4411-8.0056.8608-9.3579a4.3117,4.3117,0,0,1,3.9886.9464c1.7561,1.4261,2.9989,3.4816,4.3308,5.282a22.6416,22.6416,0,0,1,2.4452,3.5317c.1367.289.6433.0819.5226-.22-1.1485-2.8764-4.0232-5.96-6.0254-8.2753-2.262-2.6155-6.5574-2.8806-8.5567.3767-2.821,4.5961,3.1818,10.3007,6.6785,12.505,3.0415,1.9174,8.2764-.712,7.7732-4.53C244.6437,193.9145,244.3763,193.9,244.3766,194.0937Z" transform="translate(-14.3667 -11.1983)"/><polygon class="cls-14" points="229.85 231.294 275.815 249.274 269.597 236.763 229.85 221.561 225.351 230.517 229.85 231.294"/><polygon class="cls-15" points="248.34 193.477 287.879 305.071 297.705 303.516 260.031 196.674 248.34 193.477"/><polygon class="cls-14" points="242.711 191.297 199.011 266.634 209.598 266.634 250.057 198.325 248.34 193.477 242.711 191.297"/><path class="cls-11" d="M163.0952,211.28c7.7227-2.4125,50.9328-16.8871,56.2589-18.672a.8044.8044,0,0,1,.8921.2717l11.98,15.3182a.8121.8121,0,0,1-.3781,1.2692L176.53,228.297a.8121.8121,0,0,1-.8851-.2483L162.7193,212.574A.8094.8094,0,0,1,163.0952,211.28Z" transform="translate(-14.3667 -11.1983)"/><path class="cls-13" d="M162.4111,209.3645v.9486a.7737.7737,0,0,0,.1856.5027l13.5368,15.835a.7737.7737,0,0,0,.84.2289l55.9237-19.25a.7736.7736,0,0,0,.5218-.7315h0c0-.438,0-.8017-.2552-.8539l-70.0063,2.5474A.7737.7737,0,0,0,162.4111,209.3645Z" transform="translate(-14.3667 -11.1983)"/><path class="cls-12" d="M162.4111,208.6178c.6958.0078,57.97-19.1926,57.97-19.1926l13.0377,16.671-56.9282,19.3782Z" transform="translate(-14.3667 -11.1983)"/><polygon class="cls-13" points="152.016 198.061 152.867 198.987 155.921 197.836 155.282 196.953 152.016 198.061"/><polygon class="cls-13" points="156.485 196.385 157.355 197.293 160.384 196.08 159.728 195.21 156.485 196.385"/><polygon class="cls-13" points="161.287 194.81 162.157 195.719 165.186 194.505 164.529 193.635 161.287 194.81"/><polygon class="cls-13" points="166.089 193.235 166.959 194.144 169.988 192.931 169.331 192.061 166.089 193.235"/><polygon class="cls-13" points="170.891 191.661 171.761 192.57 174.79 191.356 174.133 190.486 170.891 191.661"/><polygon class="cls-13" points="175.692 190.086 176.562 190.995 179.592 189.782 178.935 188.912 175.692 190.086"/><polygon class="cls-13" points="180.494 188.512 181.364 189.421 184.393 188.207 183.737 187.337 180.494 188.512"/><polygon class="cls-13" points="185.296 186.937 186.166 187.846 189.195 186.633 188.539 185.763 185.296 186.937"/><polygon class="cls-13" points="190.098 185.363 190.968 186.271 193.997 185.058 193.34 184.188 190.098 185.363"/><polygon class="cls-13" points="194.9 183.788 195.77 184.697 198.799 183.484 198.142 182.614 194.9 183.788"/><polygon class="cls-13" points="199.702 182.214 200.572 183.122 203.601 181.909 202.944 181.039 199.702 182.214"/><polygon class="cls-13" points="158.509 201.69 155.884 202.846 154.365 200.763 156.959 199.707 158.509 201.69"/><polygon class="cls-13" points="162.709 200.017 160.084 201.174 158.565 199.09 161.159 198.035 162.709 200.017"/><polygon class="cls-13" points="167.449 198.724 164.781 199.777 163.345 197.635 165.978 196.682 167.449 198.724"/><polygon class="cls-13" points="171.712 197.218 169.043 198.27 167.607 196.129 170.241 195.176 171.712 197.218"/><polygon class="cls-13" points="175.974 195.711 173.306 196.763 171.87 194.622 174.503 193.669 175.974 195.711"/><polygon class="cls-13" points="180.237 194.205 177.568 195.257 176.132 193.116 178.766 192.163 180.237 194.205"/><polygon class="cls-13" points="184.499 192.698 181.831 193.75 180.395 191.609 183.028 190.656 184.499 192.698"/><polygon class="cls-13" points="188.762 191.192 186.093 192.244 184.657 190.103 187.291 189.15 188.762 191.192"/><polygon class="cls-13" points="193.552 189.667 190.883 190.72 189.447 188.579 192.081 187.626 193.552 189.667"/><polygon class="cls-13" points="198.342 188.143 195.673 189.196 194.237 187.055 196.871 186.101 198.342 188.143"/><polygon class="cls-13" points="203.132 186.619 200.463 187.672 199.027 185.53 201.661 184.577 203.132 186.619"/><polygon class="cls-13" points="207.922 185.095 205.253 186.147 203.817 184.006 206.451 183.053 207.922 185.095"/><polygon class="cls-13" points="160.914 204.445 158.289 205.601 156.77 203.518 159.364 202.462 160.914 204.445"/><polygon class="cls-13" points="165.114 202.772 162.489 203.928 160.97 201.845 163.564 200.79 165.114 202.772"/><polygon class="cls-13" points="169.854 201.479 167.186 202.531 165.75 200.39 168.383 199.437 169.854 201.479"/><polygon class="cls-13" points="174.117 199.973 171.448 201.025 170.012 198.884 172.646 197.931 174.117 199.973"/><polygon class="cls-13" points="178.379 198.466 175.711 199.518 174.275 197.377 176.908 196.424 178.379 198.466"/><polygon class="cls-13" points="182.642 196.96 179.973 198.012 178.537 195.871 181.171 194.918 182.642 196.96"/><polygon class="cls-13" points="186.904 195.453 184.236 196.505 182.8 194.364 185.433 193.411 186.904 195.453"/><polygon class="cls-13" points="191.167 193.946 188.498 194.999 187.062 192.858 189.696 191.905 191.167 193.946"/><polygon class="cls-13" points="195.957 192.422 193.288 193.475 191.852 191.334 194.486 190.38 195.957 192.422"/><polygon class="cls-13" points="200.747 190.898 198.078 191.951 196.642 189.809 199.276 188.856 200.747 190.898"/><polygon class="cls-13" points="205.537 189.374 202.868 190.426 201.432 188.285 204.066 187.332 205.537 189.374"/><polygon class="cls-13" points="210.327 187.85 207.658 188.902 206.222 186.761 208.856 185.808 210.327 187.85"/><polygon class="cls-13" points="163.52 207.452 160.895 208.608 159.376 206.525 161.97 205.47 163.52 207.452"/><polygon class="cls-13" points="167.72 205.78 165.095 206.936 163.576 204.853 166.171 203.797 167.72 205.78"/><polygon class="cls-13" points="172.46 204.487 169.792 205.539 168.356 203.398 170.989 202.445 172.46 204.487"/><polygon class="cls-13" points="176.723 202.98 174.054 204.033 172.618 201.891 175.252 200.938 176.723 202.98"/><polygon class="cls-13" points="180.985 201.474 178.317 202.526 176.881 200.385 179.514 199.432 180.985 201.474"/><polygon class="cls-13" points="185.248 199.967 182.579 201.019 181.143 198.878 183.777 197.925 185.248 199.967"/><polygon class="cls-13" points="189.51 198.461 186.842 199.513 185.406 197.372 188.039 196.419 189.51 198.461"/><polygon class="cls-13" points="193.773 196.954 191.104 198.006 189.668 195.865 192.302 194.912 193.773 196.954"/><polygon class="cls-13" points="198.563 195.43 195.894 196.482 194.458 194.341 197.092 193.388 198.563 195.43"/><polygon class="cls-13" points="203.353 193.906 200.684 194.958 199.248 192.817 201.882 191.864 203.353 193.906"/><polygon class="cls-13" points="208.143 192.382 205.474 193.434 204.038 191.293 206.672 190.34 208.143 192.382"/><polygon class="cls-13" points="212.933 190.858 210.264 191.91 208.828 189.769 211.462 188.816 212.933 190.858"/><polygon class="cls-13" points="165.87 210.434 163.245 211.59 161.726 209.507 164.32 208.451 165.87 210.434"/><polygon class="cls-13" points="170.071 208.762 167.445 209.918 165.926 207.835 168.521 206.779 170.071 208.762"/><polygon class="cls-13" points="174.811 207.469 172.142 208.521 170.706 206.38 173.34 205.427 174.811 207.469"/><polygon class="cls-13" points="179.073 205.962 176.405 207.014 174.969 204.873 177.602 203.92 179.073 205.962"/><polygon class="cls-13" points="183.336 204.455 180.667 205.508 179.231 203.367 181.865 202.413 183.336 204.455"/><polygon class="cls-13" points="187.598 202.949 184.93 204.001 183.494 201.86 186.127 200.907 187.598 202.949"/><polygon class="cls-13" points="191.861 201.442 189.192 202.495 187.756 200.354 190.39 199.4 191.861 201.442"/><polygon class="cls-13" points="196.123 199.936 193.455 200.988 192.019 198.847 194.652 197.894 196.123 199.936"/><polygon class="cls-13" points="200.913 198.412 198.245 199.464 196.809 197.323 199.442 196.37 200.913 198.412"/><polygon class="cls-13" points="205.703 196.888 203.035 197.94 201.599 195.799 204.232 194.846 205.703 196.888"/><polygon class="cls-13" points="210.493 195.364 207.825 196.416 206.389 194.275 209.022 193.322 210.493 195.364"/><polygon class="cls-13" points="215.283 193.839 212.615 194.892 211.179 192.751 213.812 191.797 215.283 193.839"/><path class="cls-16" d="M220.3014,189.1359l-57.97,19.1926a.3087.3087,0,0,0-.22.2893c0,2.314.2078,2.3348,1.7039,4.0777q3.6437,4.2446,7.3106,8.4692c1.1236,1.2915,3.6741,5.55,5.3887,6.0363,1.0734.3042,2.4616-.6807,3.579-1.0786,12.7747-4.5486,25.6511-8.83,38.473-13.2433l14.41-4.96c.363-.125.207-.7047-.1595-.5786-17.77,6.117-35.6536,11.9717-53.3288,18.3571-2.672.9653-2.5883,1.0977-4.3323-.8472-2.0843-2.3244-4.119-4.6947-6.1608-7.0564-1.2126-1.4027-7.6993-7.1976-6.1852-8.9922.4876-.578,2.58-.8542,3.2994-1.0924l6.8968-2.2833,17.5245-5.802,29.93-9.9092c.3648-.1208.2085-.7-.16-.5786Z" transform="translate(-14.3667 -11.1983)"/><path class="cls-16" d="M162.532,208.3653c4.384,5.5849,8.9474,11.1028,13.6579,16.4156.21.2367.53-.1037.3414-.3414-4.4124-5.5559-9.05-11.0046-13.7871-16.2863-.1318-.1469-.3282.0642-.2122.2121Z" transform="translate(-14.3667 -11.1983)"/><ellipse class="cls-7" cx="95.6523" cy="210.0207" rx="6.2269" ry="1.5693"/><path class="cls-17" d="M156.3676,187.2153c2.6855,3.0248,3.3615,9.2441-1.2073,11.245a14.271,14.271,0,0,1-6.0925.7328c-3.13-.1242-6.1675-.5671-9.319-.4329a38.0034,38.0034,0,0,0-14.069,3.1183c-8.25,3.7381-13.8935,11.9531-15.3173,20.792-.09.5578.7636.7979.8543.2355,2.7665-17.1605,18.4917-24.2476,34.4394-23.18,4.182.28,8.8349,1.2626,11.8941-2.3756,2.7671-3.2907,1.9622-7.5274-.9242-10.3934-.1684-.1673-.4138.0836-.2585.2585Z" transform="translate(-14.3667 -11.1983)"/><path class="cls-7" d="M119.0434,243.9811" transform="translate(-14.3667 -11.1983)"/><polygon class="cls-14" points="77.933 267.403 123.898 285.383 117.68 272.872 77.933 257.67 73.434 266.626 77.933 267.403"/><polygon class="cls-15" points="96.423 229.586 135.962 341.18 145.788 339.625 108.657 234.324 96.423 229.586"/><polygon class="cls-14" points="90.794 227.406 47.094 302.743 57.681 302.743 98.14 234.434 96.423 229.586 90.794 227.406"/><path class="cls-18" d="M136.81,217.8762s-11.1328,3.6174-8.9883,7.9648,10.67,4.98,16.5469,4.1778c6.2351-.8506,13.1255-4.5953,10.849-9.8843S136.81,217.8762,136.81,217.8762Z" transform="translate(-14.3667 -11.1983)"/><path class="cls-19" d="M129.9749,210.88l4.67,12.15a7.0262,7.0262,0,0,0,2.0131,1.977,12.6234,12.6234,0,0,0,11.9337-2.036l.954-14.18a4.5189,4.5189,0,0,0-2.1358-3.8885c-2.1386-1.3036-5.959-2.59-11.8248-1.0466C129.3214,205.504,129.9749,210.88,129.9749,210.88Z" transform="translate(-14.3667 -11.1983)"/><path class="cls-19" d="M150.04,210.22a2.6078,2.6078,0,0,1,.4071-.2328c-.225.097.1213-.0258.1408-.031q.1131-.03.2283-.0508-.2088.0231.0169.0024c.1175-.0014.2362.0009.3534-.0023.279-.0075-.1136-.0468.137.0128.1548.0369.3059.0742.4571.1248.3175.1063-.1539-.1049.135.064.0384.0224.4218.2689.2393.13a2.6048,2.6048,0,0,1,.2618.2362q.083.0831.16.1716.126.1516.0487.0567t.04.0638q.065.0981.1236.2.0882.1531.1621.3141c-.1-.217.0675.2088.0811.2551.0335.114.055.2307.0855.3454q.0375.2236.0112.0192.0107.0885.0163.1773a3.65,3.65,0,0,1-1.1958,3.0041c-.1224.1262-.2514.2441-.383.3606-.166.1468.0378-.0029-.1648.1237-.13.0813-.2572.1633-.3937.2336q-.0865.0461-.1762.0855.144-.069-.0684.012c-.1211.03-.2376.0672-.3616.0851.233-.0336-.2349-.01-.2856-.0132.2149.0122-.0981-.0275-.1521-.0373q-.21-.0741-.0451-.0026a1.9733,1.9733,0,0,1-.2148-.1193,1.25,1.25,0,0,0-1.2618,2.1587c2.6742,1.595,5.6679-.7978,6.7-3.244a5.7294,5.7294,0,0,0,.3-3.8534,4.8206,4.8206,0,0,0-2.3178-2.9485,4.3566,4.3566,0,0,0-4.3464.14A1.25,1.25,0,0,0,150.04,210.22Z" transform="translate(-14.3667 -11.1983)"/><path class="cls-7" d="M148.0937,208.3944a4.5806,4.5806,0,0,1-2.15,2.5868,9.7144,9.7144,0,0,1-3.3006.9767,27.83,27.83,0,0,1-9.4176-.2124,3.5465,3.5465,0,0,1-1.7729-.7249,2.4657,2.4657,0,0,1-.3522-2.8465,5.3747,5.3747,0,0,1,2.1885-2.1c4.3066-2.5559,10.6379-2.2207,13.9243-.0948A2.2656,2.2656,0,0,1,148.0937,208.3944Z" transform="translate(-14.3667 -11.1983)"/><path class="cls-20" d="M131.1658,210.0793c-.5048-4.0921,5.6394-5.3821,8.4512-5.5043,2.7185-.1182,6.1578.3957,7.9655,2.6282.21.26.6482-.08.4638-.3578-3.1145-4.7017-19.4429-3.6542-17.3363,3.2956.0722.2381.4891.2083.4558-.0617Z" transform="translate(-14.3667 -11.1983)"/><path class="cls-20" d="M148.537,222.8782c-3.8683,2.2417-10.127,4.95-13.316.1707-1.8865-2.8272-2.7449-7.1348-3.9629-10.3308-1.1627-3.0506-1.73-5.588,1.709-7.6132,3.1335-1.8454,8.2031-2.109,11.6327-1.1533,7.4925,2.088,3.9657,13.065,3.7455,19.02-.0119.3213.462.31.4922,0,.4359-4.4678,1.4509-10.0009.9723-14.42-.7-6.4606-9.885-6.1938-14.4632-4.9454-2.4981.6812-4.8047,1.9871-5.5444,4.625-.8787,3.1334,1.8083,6.9827,2.8914,9.8032,1.24,3.23,1.582,6.9609,5.2939,7.8755a12.3862,12.3862,0,0,0,10.68-2.862C148.7638,222.9683,148.6405,222.8182,148.537,222.8782Z" transform="translate(-14.3667 -11.1983)"/><path class="cls-17" d="M136.7934,214.8974a7.9917,7.9917,0,0,0,.1689,1.172,1.9267,1.9267,0,0,0,.3592,1.0435.31.31,0,0,0,.5132-.1355,1.9721,1.9721,0,0,0-.1763-1.1,7.9821,7.9821,0,0,0-.3977-1.1067.2526.2526,0,0,0-.4673.1266Z" transform="translate(-14.3667 -11.1983)"/><path class="cls-17" d="M139.0549,214.64c.0324.3622.05.7172.1008,1.08a2.5417,2.5417,0,0,0,.2226,1.0713.3066.3066,0,0,0,.5526-.0722,2.05,2.05,0,0,0-.1237-1.1033,5.9,5.9,0,0,0-.4116-1.0678.1841.1841,0,0,0-.3407.0923Z" transform="translate(-14.3667 -11.1983)"/><path class="cls-17" d="M135.4045,217.2124c.14,1.816,2.1765,2.6855,3.7938,2.4119a3.4805,3.4805,0,0,0,2.8368-4.0322c-.0869-.46-.77-.3275-.7872.1066a3.0332,3.0332,0,0,1-2.2681,3.1333c-1.4832.33-2.484-.7174-3.3872-1.6975a.1113.1113,0,0,0-.1881.0779Z" transform="translate(-14.3667 -11.1983)"/><path class="cls-20" d="M133.0645,218.8192c-2.5641,1.2056-7.3189,3.4641-6.0808,7.078,1.5047,4.3923,9.3287,4.9454,12.9442,5.0182,4.9461.1,10.7641-.7188,14.1949-4.7141,2.36-2.748,2.8391-6.4084-.3036-8.6122-.4551-.3192-.8491.408-.4282.7326,6.0077,4.6316-2.4983,9.9567-5.6541,10.9835a23.4883,23.4883,0,0,1-7.809.9042c-2.218-.0526-5.5837-.0608-7.6441-1.25-7.9857-4.6107-2.7783-8.0188.8919-9.9495.1269-.0668.0155-.25-.1112-.19Z" transform="translate(-14.3667 -11.1983)"/><g class="cls-21"><path class="cls-17" d="M131.2887,210.15c1.2846-3.4989,4.8929-4.83,8.3768-4.9164,2.6547-.066,6.8354.3143,7.5091,3.6026a.4991.4991,0,0,0,.976-.1321c-.475-7.2375-17.4377-5.8259-17.3269,1.383a.2379.2379,0,0,0,.465.0629Z" transform="translate(-14.3667 -11.1983)"/></g><g class="cls-21"><path class="cls-6" d="M135.6657,208.7915a4.162,4.162,0,0,1-2.28-4.6078,6.9951,6.9951,0,0,1,2.62-3.5557,15.9348,15.9348,0,0,0,3.2681-3.0644,3.8006,3.8006,0,0,0,.2944-4.213c-.973-1.3688-2.9951-1.57-4.1225-2.8148a4.0575,4.0575,0,0,1-.684-3.7936,10.08,10.08,0,0,1,2.0111-3.4545,3.9455,3.9455,0,0,0,.7905,4.4542,11.0142,11.0142,0,0,0,4.1049,2.4865,12.8387,12.8387,0,0,1,4.19,2.3609,6.3824,6.3824,0,0,1,0,8.8025,9.1,9.1,0,0,0-1.2527,1.2586,1.5636,1.5636,0,0,0-.1728,1.67,4.9446,4.9446,0,0,0,.7989.76,2.3762,2.3762,0,0,1,.1245,2.9559,3.887,3.887,0,0,1-2.7448,1.4842,11.5255,11.5255,0,0,1-3.197-.2015" transform="translate(-14.3667 -11.1983)"/></g><g class="cls-22"><path class="cls-23" d="M126.9466,225.1283c-.25,2.6395,1.5352,5.1665,3.8567,6.4471a14.81,14.81,0,0,0,7.7259,1.42,23.15,23.15,0,0,0,8.7719-1.8751,13.997,13.997,0,0,0,6.6012-5.9234A15.35,15.35,0,0,1,142.82,230.4a30.6718,30.6718,0,0,1-12.3046-2.28,8.3535,8.3535,0,0,1-2.23-1.1081,3.0909,3.0909,0,0,1-1.2706-2.0719" transform="translate(-14.3667 -11.1983)"/></g><polygon class="cls-24" points="145.559 72.269 149.987 91.37 179.859 86.568 175.469 67.142 145.559 72.269"/><path class="cls-6" d="M167.1587,90.01l.46,2.207,2.5517-.5317-.46-2.2071.6885-.1435,1.1,5.2754-.6894.1435-.5147-2.4726-2.5517.5317.5146,2.4727-.6806.142-1.1-5.2753Z" transform="translate(-14.3667 -11.1983)"/><path class="cls-6" d="M172.7085,89.459l-1.6045.334-.1211-.58,3.9063-.814.12.58-1.6123.3359.9785,4.6954-.6885.144Z" transform="translate(-14.3667 -11.1983)"/><path class="cls-6" d="M180.5425,90.3076c-.1924-.727-.4238-1.6011-.5528-2.2607l-.0234.0049c-.0517.6562-.1338,1.3584-.248,2.142l-.3985,2.754-.5166.1074-1.3769-2.3345c-.4053-.6914-.7588-1.3281-1.0381-1.9238l-.0156.0034c.122.6611.2675,1.5532.3847,2.354l.33,2.291-.6494.1353-.7315-5.3521.8692-.1806,1.4316,2.3642c.3545.6035.6553,1.145.9024,1.665l.0234-.0048c.0225-.5586.09-1.1768.1856-1.8921l.4072-2.7476.8691-.1806,1.4287,5.2065-.666.1387Z" transform="translate(-14.3667 -11.1983)"/><path class="cls-6" d="M181.7788,86.9634l.6807-.1416.98,4.7041,2.2539-.47.1192.5712-2.9356.6114Z" transform="translate(-14.3667 -11.1983)"/><path class="cls-24" d="M186.1093,98.3683s4.32,5.3024,4.2222,5.0078-.8163-5.7933-.8163-5.7933l-4.0871.3928" transform="translate(-14.3667 -11.1983)"/><path class="cls-6" d="M312.6776,92.4726a66.4155,66.4155,0,0,0-8.434,3.9528.6749.6749,0,0,0-.1357,1.0531c2.5061,2.0018,5.1785,3.7849,7.661,5.8159.4744.3882,1.44.3538,1.5562-.4108a49.31,49.31,0,0,0,.349-9.8993c-.066-1.31-2.12-1.3143-2.0437,0a89.0751,89.0751,0,0,1-.1343,9.6518l1.4011-.804c-2.7239-1.7049-5.2726-3.67-7.9767-5.4067v1.158a54.9491,54.9491,0,0,1,8.0238-4.1435c.5879-.2393.3375-1.2055-.2667-.9673Z" transform="translate(-14.3667 -11.1983)"/><path class="cls-6" d="M176.4218,11.6708a66.3966,66.3966,0,0,0-8.4341,3.9528.6748.6748,0,0,0-.1357,1.0531c2.5061,2.0017,5.1785,3.785,7.661,5.8159.4745.3882,1.44.3538,1.5562-.4108a49.31,49.31,0,0,0,.3491-9.8993c-.066-1.31-2.12-1.3143-2.0438,0a89.0478,89.0478,0,0,1-.1342,9.6517l1.401-.8039c-2.7239-1.7049-5.2725-3.67-7.9767-5.4067v1.158a54.9451,54.9451,0,0,1,8.0239-4.1435c.5879-.2393.3375-1.2055-.2667-.9673Z" transform="translate(-14.3667 -11.1983)"/><path class="cls-6" d="M102.12,59.6371a66.4018,66.4018,0,0,0-8.434,3.9528.6749.6749,0,0,0-.1357,1.0531c2.5061,2.0017,5.1784,3.7849,7.6609,5.8159.4745.3882,1.44.3538,1.5563-.4109a49.3086,49.3086,0,0,0,.349-9.8992c-.066-1.31-2.12-1.3143-2.0437,0a89.0733,89.0733,0,0,1-.1343,9.6517l1.4011-.8039c-2.7239-1.7049-5.2726-3.67-7.9767-5.4067v1.158a54.9491,54.9491,0,0,1,8.0238-4.1435c.5879-.2393.3375-1.2055-.2667-.9673Z" transform="translate(-14.3667 -11.1983)"/><path class="cls-6" d="M225.1776,74.1352a90.2866,90.2866,0,0,0,5.9414,11.541.68.68,0,0,0,1.158,0c2.6787-3.6917,5.132-7.54,7.8406-11.21.465-.63-.1856-1.3357-.8039-1.401a72.8948,72.8948,0,0,0-13.6564.0177c-1.3031.108-1.31,2.1594,0,2.0438a111.8829,111.8829,0,0,1,13.6564-.1994l-.804-1.401c-2.3648,3.8872-4.9936,7.605-7.3907,11.4727h1.158a80.5676,80.5676,0,0,1-6.2333-11.37c-.2612-.591-1.1194-.0791-.8661.5063Z" transform="translate(-14.3667 -11.1983)"/><path class="cls-6" d="M245.3559,148.02a4.4564,4.4564,0,0,1,3.6814,3.9234,3.8369,3.8369,0,0,1-7.6509.5919c-.1438-2.1757,1.5965-3.6518,3.5086-4.1868.8606-.2408.7252-1.6629-.2169-1.6021a5.5989,5.5989,0,0,0-5.0923,5.7889,5.7807,5.7807,0,0,0,5.6886,5.28,5.68,5.68,0,0,0,5.4022-5.2173,5.3874,5.3874,0,0,0-5.19-5.5443.4944.4944,0,0,0-.1309.9668Z" transform="translate(-14.3667 -11.1983)"/><path class="cls-6" d="M267.2647,71.3027a1.1985,1.1985,0,0,1,.7821,1.0124.812.812,0,0,1-.7731.7586.713.713,0,0,1-.6407-.7547c.0684-.4276.573-.6055.9051-.7811.5767-.3049.51-1.3861-.1948-1.4907a2.2919,2.2919,0,0,0-2.5142,2.2718,2.5155,2.5155,0,0,0,2.4109,2.51,2.4277,2.4277,0,0,0,2.43-2.3191,2.129,2.129,0,0,0-2.274-2.1736.4947.4947,0,0,0-.1308.9668Z" transform="translate(-14.3667 -11.1983)"/><path class="cls-6" d="M129.1931,36.8357a1.1983,1.1983,0,0,1,.7821,1.0124.8118.8118,0,0,1-.7731.7585.7128.7128,0,0,1-.6407-.7546c.0684-.4276.573-.6055.9051-.7811.5766-.305.51-1.3862-.1948-1.4908a2.2923,2.2923,0,0,0-2.5143,2.2719,2.5156,2.5156,0,0,0,2.411,2.51,2.4274,2.4274,0,0,0,2.43-2.319,2.129,2.129,0,0,0-2.274-2.1736.4947.4947,0,0,0-.1308.9668Z" transform="translate(-14.3667 -11.1983)"/><path class="cls-6" d="M71.3927,99.3969a1.198,1.198,0,0,1,.782,1.0124.8118.8118,0,0,1-.7731.7585.713.713,0,0,1-.6407-.7546c.0684-.4277.5731-.6056.9052-.7811.5767-.3049.51-1.3862-.1949-1.4908a2.2921,2.2921,0,0,0-2.5142,2.2719,2.5156,2.5156,0,0,0,2.411,2.51,2.4276,2.4276,0,0,0,2.43-2.319,2.129,2.129,0,0,0-2.274-2.1736.4947.4947,0,0,0-.1308.9668Z" transform="translate(-14.3667 -11.1983)"/><path class="cls-6" d="M87.9,138.7511a4.4561,4.4561,0,0,1,3.6813,3.9233,3.8369,3.8369,0,0,1-7.6508.5919c-.1438-2.1757,1.5965-3.6518,3.5085-4.1868.8607-.2408.7252-1.6629-.2168-1.6021a5.5991,5.5991,0,0,0-5.0924,5.7889,5.7808,5.7808,0,0,0,5.6887,5.28,5.68,5.68,0,0,0,5.4021-5.2173,5.3872,5.3872,0,0,0-5.19-5.5442.4944.4944,0,0,0-.1308.9668Z" transform="translate(-14.3667 -11.1983)"/><path class="cls-6" d="M318.1738,133.0783c-1.8816,2.6856-2.8768,6.6806-3.81,9.7959-.3256,1.0869,1.2852,1.4868,1.6725.4611,1.1459-3.0351,2.757-6.7879,2.889-10.0535.0174-.4292-.5376-.5084-.7512-.2035Z" transform="translate(-14.3667 -11.1983)"/><path class="cls-6" d="M312.2616,137.0926a52.4229,52.4229,0,0,0,9.8473,4.0115c1.2118.4119,1.6929-1.4593.5234-1.8984a51.7165,51.7165,0,0,0-9.9626-3.0812.5324.5324,0,0,0-.4081.9681Z" transform="translate(-14.3667 -11.1983)"/><path class="cls-6" d="M279.2859,27.8977c-1.8815,2.6857-2.8768,6.6806-3.81,9.796-.3257,1.0869,1.2851,1.4868,1.6724.461,1.1459-3.0351,2.757-6.7878,2.8891-10.0535.0173-.4292-.5377-.5083-.7513-.2035Z" transform="translate(-14.3667 -11.1983)"/><path class="cls-6" d="M273.3737,31.9121a52.4345,52.4345,0,0,0,9.8474,4.0115c1.2117.4119,1.6928-1.4593.5233-1.8985a51.7235,51.7235,0,0,0-9.9626-3.0812.5324.5324,0,0,0-.4081.9682Z" transform="translate(-14.3667 -11.1983)"/><path class="cls-6" d="M82.0389,26.34c-1.8815,2.6857-2.8767,6.6806-3.81,9.796-.3256,1.0869,1.2852,1.4868,1.6725.461,1.1459-3.0351,2.757-6.7878,2.8889-10.0535.0174-.4292-.5376-.5083-.7512-.2035Z" transform="translate(-14.3667 -11.1983)"/><path class="cls-6" d="M76.1267,30.3541a52.4345,52.4345,0,0,0,9.8474,4.0115c1.2117.4119,1.6928-1.4593.5233-1.8985a51.7226,51.7226,0,0,0-9.9625-3.0812.5324.5324,0,0,0-.4082.9682Z" transform="translate(-14.3667 -11.1983)"/><path class="cls-6" d="M123.8733,88.7614c.1295,3.4083,1.2159,7.8847,3.1991,10.709a.7537.7537,0,0,0,1.3708-.5779c-.469-1.7388-1.3659-3.3569-1.9493-5.0686-.5854-1.7173-.9894-3.4887-1.5709-5.2045-.185-.5457-1.0737-.49-1.05.142Z" transform="translate(-14.3667 -11.1983)"/><path class="cls-6" d="M128.1965,98.9865a49.3025,49.3025,0,0,0,9.0455-.8948c.8581-.1257.6649-1.6347-.2069-1.5285a49.2782,49.2782,0,0,0-8.9607,1.521.4616.4616,0,0,0,.1221.9023Z" transform="translate(-14.3667 -11.1983)"/><path class="cls-6" d="M137.9305,97.05a17.1744,17.1744,0,0,0-.911-4.4,46.4338,46.4338,0,0,0-1.3275-4.832.91.91,0,0,0-1.7537.4835,46.3869,46.3869,0,0,0,1.4429,4.8,17.2236,17.2236,0,0,0,1.5622,4.2154.5341.5341,0,0,0,.9871-.2673Z" transform="translate(-14.3667 -11.1983)"/><path class="cls-6" d="M124.4291,89.1636a94.8462,94.8462,0,0,0,9.5846-.762c1.0644-.1179,1.0849-1.7972,0-1.6875a97.1723,97.1723,0,0,0-9.7416,1.2894c-.6592.1354-.5,1.1655.157,1.16Z" transform="translate(-14.3667 -11.1983)"/><path class="cls-6" d="M304.0016,51.4466c.1294,3.4083,1.2158,7.8846,3.199,10.7089a.7537.7537,0,0,0,1.3708-.5779c-.469-1.7387-1.3658-3.3569-1.9493-5.0685-.5853-1.7173-.9893-3.4887-1.5708-5.2046-.185-.5457-1.0737-.4895-1.05.1421Z" transform="translate(-14.3667 -11.1983)"/><path class="cls-6" d="M308.3247,61.6716a49.2842,49.2842,0,0,0,9.0455-.8948c.8581-.1257.665-1.6347-.2069-1.5284a49.278,49.278,0,0,0-8.9607,1.5209.4616.4616,0,0,0,.1221.9023Z" transform="translate(-14.3667 -11.1983)"/><path class="cls-6" d="M318.0587,59.7352a17.1737,17.1737,0,0,0-.911-4.4,46.42,46.42,0,0,0-1.3274-4.832.91.91,0,0,0-1.7538.4835,46.3778,46.3778,0,0,0,1.4429,4.8,17.2261,17.2261,0,0,0,1.5623,4.2155.5341.5341,0,0,0,.987-.2674Z" transform="translate(-14.3667 -11.1983)"/><path class="cls-6" d="M304.5574,51.8488a94.8444,94.8444,0,0,0,9.5845-.7621c1.0645-.1179,1.0849-1.7972,0-1.6875A97.1668,97.1668,0,0,0,304.4,50.6887c-.6593.1354-.5,1.1656.157,1.16Z" transform="translate(-14.3667 -11.1983)"/><polygon class="cls-11" points="102.594 232.199 140.944 340.391 135.962 341.18 96.423 229.586 102.594 232.199"/><polygon class="cls-11" points="81.93 261.802 112.316 274.442 115.112 281.946 77.933 267.403 81.93 261.802"/><path class="cls-11" d="M110.79,240.7846c-1.5769.3194-44.1,73.1562-44.1,73.1562H61.4611l43.6994-75.3362Z" transform="translate(-14.3667 -11.1983)"/><path class="cls-25" d="M95.3649,211.2056a6.4694,6.4694,0,0,0,4.4118,2.5976,13.0282,13.0282,0,0,0,5.2136-.435,6.0053,6.0053,0,0,0,3.65-2.0834,6.7321,6.7321,0,0,0,.769-3.81l.0207-8.7606c.003-1.2839-.0691-2.741-1.0447-3.5756-1.721-1.4722-4.6931.2047-6.5327-1.1162-.7989-.5736-1.1978-1.6121-2.0555-2.0935-1.2017-.6748-2.8006.1022-3.5007,1.29a8.0645,8.0645,0,0,0-.7638,4.0137l-.23,14.1551" transform="translate(-14.3667 -11.1983)"/><path class="cls-26" d="M97.371,161.975v12.5432a11.6817,11.6817,0,0,0-3.5838,8.9594c.1991,5.7739-.0076,29.4665-.0076,29.4665q8.565,5.7456,17.13,0l-.7965-30.462s-.1991-5.1765-3.7828-7.5657V161.975Z" transform="translate(-14.3667 -11.1983)"/><path class="cls-17" d="M97.2046,162.3138c2.7416,2.1427,6.6667,1.832,9.5477.1593a.3424.3424,0,0,0-.3455-.5909c-3.038,1.7869-5.8271,1.4149-8.9409.093-.2-.0851-.4737.1726-.2613.3386Z" transform="translate(-14.3667 -11.1983)"/><path class="cls-17" d="M93.572,213.6567a14.3656,14.3656,0,0,0,17.5073-.4414c.36-.2764.0083-.8985-.362-.6193-5.2223,3.937-11.345,3.9708-16.8709.5912-.3048-.1864-.5506.2674-.2744.47Z" transform="translate(-14.3667 -11.1983)"/><g class="cls-22"><path class="cls-23" d="M93.7677,213.4859a5.3727,5.3727,0,0,0,3.3213,5.1023,9.2426,9.2426,0,0,0,6.3618.1119,14.7608,14.7608,0,0,0,7.7762-5.6388,34.4716,34.4716,0,0,1-8.6985,2.5819,11.6132,11.6132,0,0,1-8.6086-2.109" transform="translate(-14.3667 -11.1983)"/></g><path class="cls-17" d="M203.7269,214.7514c1.3919-2.157,2.6553-4.4309,3.8844-6.6844a.2932.2932,0,0,0-.5059-.2957c-1.3031,2.2124-2.6058,4.4647-3.7428,6.7672a.2111.2111,0,0,0,.3643.2129Z" transform="translate(-14.3667 -11.1983)"/><path class="cls-27" d="M247.36,313.7561c0,.5625,2.25,8.4366,2.25,8.4366l11.8111-1.6874-3.0691-9.82Z" transform="translate(-14.3667 -11.1983)"/><path class="cls-27" d="M215.3183,330.8893c0,.5624,2.25,8.4365,2.25,8.4365l11.8112-1.6873-3.069-9.82Z" transform="translate(-14.3667 -11.1983)"/><path class="cls-28" d="M212.8682,245.4461s-2.5013-9.6251,9.6146-10.658c9.221-.7861,30.2665,4.1759,30.2665,4.1759l-5.8627,21.0116Z" transform="translate(-14.3667 -11.1983)"/><polygon class="cls-28" points="205.517 249.274 229.314 309.963 249.73 304.094 234.864 263.488 205.517 249.274"/><path class="cls-29" d="M249.2307,242.287s-46.2655-9.02-56.5865,2.6619c-5.5074,6.2335,19.4515,88.8244,19.4515,88.8244l21.0888-3.01-13.9994-62.6856s57.72,13.0434,59.3768-17.1541" transform="translate(-14.3667 -11.1983)"/><path class="cls-30" d="M263.158,140.13q-.1223,4.6323-.2443,9.2646a4.0891,4.0891,0,0,0,.1653,1.5786,1.3926,1.3926,0,0,0,1.1687.9509" transform="translate(-14.3667 -11.1983)"/><path class="cls-17" d="M263.9243,132.6827a10.25,10.25,0,0,1-5.92-1.2264c-1.1022-.5817-1.4525-2.1344-.6323-4.5082a2.8639,2.8639,0,0,1,2.4523-1.5732c1.4623.1231,1.8379.319,2.5027-.234a2.9345,2.9345,0,0,1-1.6034-3.98,3.717,3.717,0,0,1,4.1488-1.7894c2.106.51,3.4769,2.5125,5.35,3.6019,2.2365,1.3006,5.0029,1.2023,7.5677.8631s5.1814-.8793,7.7107-.3355c3.846.8268,6.83,4.1265,8.1234,7.8417s1.1218,7.7884.4558,11.6655c-.3993,2.324-.9718,4.6831-.6042,7.0123.1482.9392.4475,1.8518.5555,2.7964a3.733,3.733,0,0,1-.5836,2.7186c-.5828.7512-7.04.8453-7.8277.3134" transform="translate(-14.3667 -11.1983)"/><path class="cls-30" d="M264.7544,130.276a1.66,1.66,0,0,0-1.66,1.5825c-.2706,5.9343-.1679,25.31,4.9088,28.3622,2.41,1.4488,8.7554.2422,8.7554.2422l1.5968,14.371,15.7573-1.1015-2.4376-17.9652s-5.9553,1.7257-5.7278-10.1631c0,0,6.46-1.7351,3.8464-7.817-1.78-4.1408-9.8989-3.2591-8.9682,3.71l-2.6228.69-2.7415-10.6183a1.9754,1.9754,0,0,0-1.9708-1.84Z" transform="translate(-14.3667 -11.1983)"/><path class="cls-31" d="M278.2183,167.4732s-12.0985.6917-15.2525,10.9231l-4.78,33.2654-6.8819,32.1729,24.22,7.1862,22.7062,1.5373s6.9191-39.3079,10.3851-55.7107c2.9782-14.0947.11-20.1594-1.0973-21.9647-.3189-.4769-.5918-.9813-.8632-1.4884C305.304,170.8709,294.5248,164.622,278.2183,167.4732Z" transform="translate(-14.3667 -11.1983)"/><path class="cls-31" d="M203.1285,214.78s33.1178,17.9348,37.3823,15.3391,20.6046-22.1837,20.6046-22.1837l3.6644-32.6623-29.835,40.3738-27.6262-7.9849Z" transform="translate(-14.3667 -11.1983)"/><path class="cls-17" d="M266.0972,141.2132a3.5,3.5,0,0,0-.0871.8245,1.43,1.43,0,0,0,.084.8154.3572.3572,0,0,0,.6112,0,1.4225,1.4225,0,0,0,.078-.8154,3.5072,3.5072,0,0,0-.094-.8245.31.31,0,0,0-.5921,0Z" transform="translate(-14.3667 -11.1983)"/><path class="cls-17" d="M265.9905,138.1657a2.6461,2.6461,0,0,1,.8489-.2484,3.6112,3.6112,0,0,1,.8533.242.311.311,0,0,0,.3468-.4511,1.537,1.537,0,0,0-2.3613.0512.2794.2794,0,0,0,.3123.4063Z" transform="translate(-14.3667 -11.1983)"/><path class="cls-17" d="M258.4791,130.876a51.0205,51.0205,0,0,0,14.2572,1.443c7.7924-.3463,7.9078.8658,7.9078.8658l-4.2136-4.9063Z" transform="translate(-14.3667 -11.1983)"/><path class="cls-17" d="M289.9051,122.9452c.0339-.96.3935-1.8649.5017-2.8089.0279-.2433-.3062-.2755-.4193-.1136a4.355,4.355,0,0,0-.4855,2.9225.2017.2017,0,0,0,.4031,0Z" transform="translate(-14.3667 -11.1983)"/><path class="cls-17" d="M290.2718,123.157a14.063,14.063,0,0,0,1.5155-1.1886.2707.2707,0,0,0-.3266-.4233,14.5249,14.5249,0,0,0-1.5436,1.2572c-.252.2032.105.5528.3547.3547Z" transform="translate(-14.3667 -11.1983)"/><g class="cls-32"><path class="cls-33" d="M275.7413,146.9092a2.2033,2.2033,0,0,1-1.9032.7028,3.8475,3.8475,0,0,1-1.8971-.8858,2.01,2.01,0,0,1-.9353-1.7156,1.5842,1.5842,0,0,1,1.4669-1.1948,4.6349,4.6349,0,0,1,1.9816.4011S276.8067,145.6937,275.7413,146.9092Z" transform="translate(-14.3667 -11.1983)"/></g><g class="cls-32"><path class="cls-33" d="M285.4476,137.727c-1.178.1213-1.673.161-2.2957,1.1683a2.8347,2.8347,0,0,0-.46,1.7223,2.5558,2.5558,0,0,0,.8915,1.66,2.9307,2.9307,0,0,0,3.3846.2863,2.7322,2.7322,0,0,0,1.0864-3.1785,2.56,2.56,0,0,0-2.9489-1.5233" transform="translate(-14.3667 -11.1983)"/></g><path class="cls-17" d="M285.8676,137.0436a3.004,3.004,0,0,0-2.2811,3.2875c.0344.27.4416.4817.59.16A2.0507,2.0507,0,0,1,285.34,139.34c.8676-.2817,1.8578.1863,1.69,1.22-.2255,1.3917-1.5629,1.5576-2.7129,1.4113-.2923-.0372-.3667.3966-.1431.5284a2.4366,2.4366,0,0,0,3.44-2.6531c-.5548-2.0975-3.2881-1.0923-3.9845.3252l.59.16a2.6184,2.6184,0,0,1,1.7662-2.8581.2228.2228,0,0,0-.1184-.4294Z" transform="translate(-14.3667 -11.1983)"/><path class="cls-17" d="M263.022,140.3131a80.924,80.924,0,0,0-.3557,9.2646c.0517,1.2476.1727,2.38,1.5335,2.7035a.1806.1806,0,0,0,.0959-.348c-1.7493-.5891-1.05-5.1615-1.02-6.5246.0362-1.6991.0561-3.3963.0186-5.0955a.136.136,0,0,0-.2719,0Z" transform="translate(-14.3667 -11.1983)"/><path class="cls-17" d="M267.2712,153.9861a3.3328,3.3328,0,0,0,2.7115-1.1111,4.6041,4.6041,0,0,0,1.3864-2.933c.0331-.3615-.59-.451-.64-.0866a4.5407,4.5407,0,0,1-1.1617,2.6044,10.756,10.756,0,0,1-2.3159,1.3764.0831.0831,0,0,0,.02.15Z" transform="translate(-14.3667 -11.1983)"/><path class="cls-17" d="M270.2532,150.4353a2.26,2.26,0,0,1,1.3916-.0846.3324.3324,0,0,0,.3249-.0859.3388.3388,0,0,0,.0859-.3249.3242.3242,0,0,0-.2333-.2333,2.5931,2.5931,0,0,0-1.775.24c-.2653.1349-.0788.5993.2059.4883Z" transform="translate(-14.3667 -11.1983)"/><path class="cls-34" d="M247.7078,280.71a49.2549,49.2549,0,0,0,26.196,4.3113,48.044,48.044,0,0,0,21.8757-8.44Z" transform="translate(-14.3667 -11.1983)"/><path class="cls-35" d="M293.4782,194.4427a18.3871,18.3871,0,0,0-15.124,15.1707c-2.0933,10.5931-1.5243,35.899-7.2293,51.59-2.3184,6.3764-10.4247,9.7444-17.1967,10.16l-23.1087.19s-7.1149,9.5964,32.3638,9.3153c0,0,20.4013.4606,31.2194-3.7027,8.8605-3.41,14.6384-10.01,18.2177-16.9451s6.8545-20.005,8.5323-29.8482,3.5479-29.0989,2.5412-31.8953-3.3556-4.1555-7.718-4.0352S293.4782,194.4427,293.4782,194.4427Z" transform="translate(-14.3667 -11.1983)"/><polygon class="cls-34" points="253.735 274.149 253.735 316.463 259.141 315.95 259.704 273.372 253.735 274.149"/><path class="cls-34" d="M270.5968,322.1927s-31.5276.1245-25.0954,14.6588c6.1479,13.892,36.7276,13.3854,47.3766,7.2228C301.82,338.8993,304.5584,324.3643,270.5968,322.1927Z" transform="translate(-14.3667 -11.1983)"/><path class="cls-17" d="M267.99,319.2937c-.7285,6.045-1.961,12.43-9.2647,12.7347a.2285.2285,0,0,0-.06.4466c2.6463.7391,5.3663-.866,6.9581-2.9255,2.2384-2.8959,2.661-6.715,2.6248-10.2558a.129.129,0,0,0-.2578,0Z" transform="translate(-14.3667 -11.1983)"/><path class="cls-17" d="M273.6425,317.4124c-.3,3.9872.0238,8.495,2.4877,11.8257,2.1053,2.846,5.5815,4.09,8.9163,4.8408a.3307.3307,0,0,0,.1757-.6373c-3.6129-1.2773-7.14-2.2764-9.2-5.8177-1.8055-3.1028-1.8013-6.7707-2.2733-10.2258-.0087-.0636-.1016-.0422-.1059.0143Z" transform="translate(-14.3667 -11.1983)"/><g class="cls-36"><path class="cls-17" d="M232.5714,276.5811c10.65,2.8867,20.6213,1.5544,31.159-1.7172,5.3036-1.6466,10.62-4.1423,13.9576-8.5805,3.7668-5.0086,4.4191-11.6231,4.9367-17.8686q1.6016-19.3263,3.2029-38.6525c.2487-3.001.5148-6.0713,1.7626-8.8121s3.6921-5.1341,6.6854-5.4647l7.8132-1.05s-22.0832-3.7432-23.9162,16.1728-3.4068,38.3633-5.2273,44.4794-9.7438,15.566-16.525,15.9964c-11.4737.7284-25.6008.47-25.6008.47S228.8925,275.584,232.5714,276.5811Z" transform="translate(-14.3667 -11.1983)"/></g><path class="cls-17" d="M232.1868,276.7232a122.4614,122.4614,0,0,0,24.3436-.7786c6.0543-.8217,12.665-2.192,17.5538-6.1124,10.5982-8.4986,9.1635-24.8941,10.02-36.8945a261.0027,261.0027,0,0,1,3.1081-26.944c1.0279-5.7962,2.978-9.0384,8.9129-10.4247,4.2747-.9985,8.9689-.8842,13.3454-.9689,4.7455-.0918,13.2492-1.1343,14.1361,5.4993.0619.4632.7977.4756.7406,0-1.0345-8.6168-13.8442-6.3555-19.6147-6.1568-7.262.25-15.2113.7432-17.5765,8.6746-2.3922,8.0219-2.7306,17.315-3.4362,25.6168-.7946,9.3476-.0015,19.284-2.4569,28.3854-2.7318,10.126-9.0142,15.6023-19.1257,17.91-9.7275,2.22-20.0292,2.3354-29.9509,1.8613-.2148-.01-.2125.3192,0,.3328Z" transform="translate(-14.3667 -11.1983)"/><path class="cls-17" d="M231.1514,275.7986c8.7954,5.6393,19.9609,5.6042,30.0341,5.3539a175.7552,175.7552,0,0,0,37.6137-4.756c.4084-.1007.235-.7181-.1732-.6283a196.7552,196.7552,0,0,1-35.5449,4.6822c-10.8669.377-21.9228.3133-31.7144-5.02a.2135.2135,0,0,0-.2153.3684Z" transform="translate(-14.3667 -11.1983)"/><path class="cls-37" d="M229.3792,337.6385s2.6842,8.3548,2.6206,8.9172-33.5775-1.3281-31.5153-3.0154,4.3335-3.1552,17.5149-2.9431l-.4314-1.2714Z" transform="translate(-14.3667 -11.1983)"/><path class="cls-37" d="M261.4207,320.5053s2.6843,8.3548,2.6206,8.9173-33.5776-1.3281-31.5152-3.0154,4.3335-3.1551,17.5148-2.943l-.4313-1.2715Z" transform="translate(-14.3667 -11.1983)"/><path class="cls-17" d="M200.2315,344.6014c10.5455,1.6523,21.3654,2.0821,32.01,2.7062.5254.0308.5289-.802,0-.82-10.6944-.37-21.2876-1.6273-31.9522-2.3141-.2415-.0155-.3023.39-.058.4282Z" transform="translate(-14.3667 -11.1983)"/><path class="cls-17" d="M214.9229,340.5013a2.94,2.94,0,0,0,.0916,2.8211c.1263.18.4979.1453.4673-.1266-.049-.4346-.1907-.8445-.2182-1.2848s.0594-.8719.0393-1.3067a.2057.2057,0,0,0-.38-.103Z" transform="translate(-14.3667 -11.1983)"/><path class="cls-17" d="M216.3632,340.4179a3.3291,3.3291,0,0,0,.4862,2.8675.2418.2418,0,0,0,.4081-.1691,7.0935,7.0935,0,0,0-.3554-1.1946,9.4938,9.4938,0,0,1-.2581-1.4658c-.0133-.1493-.2457-.2073-.2808-.038Z" transform="translate(-14.3667 -11.1983)"/><path class="cls-17" d="M217.7105,340.3284a2.282,2.282,0,0,0,.351,1.4346,2.196,2.196,0,0,0,1.0223,1.1184c.2655.0943.4265-.22.3309-.43a11.2581,11.2581,0,0,0-.7744-1.0263c-.2219-.3634-.3228-.7961-.5614-1.1444-.0894-.13-.3326-.1351-.3684.0481Z" transform="translate(-14.3667 -11.1983)"/><path class="cls-17" d="M217.9377,340.4776a8.6991,8.6991,0,0,0,1.8878.3465c.313.0049.3943-.4924.0754-.5571a8.7089,8.7089,0,0,0-1.9252-.07.1436.1436,0,0,0-.038.2808Z" transform="translate(-14.3667 -11.1983)"/><path class="cls-17" d="M215.45,340.6974a7.5826,7.5826,0,0,0-1.69-2.7652c-.54-.5356-1.54-1.1542-2.1686-.3809-1.3624,1.6768,2.2765,3.3857,3.5047,3.3292a.3251.3251,0,0,0,.086-.6353,11.6887,11.6887,0,0,1-1.8543-.6923,3.7217,3.7217,0,0,1-.8269-.6082c-.1888-.1989-.742-.9565-.0113-.9485.5068.0055,1.1924.9311,1.4832,1.2916a8.9554,8.9554,0,0,1,1.07,1.5812c.11.2229.5.0649.407-.1716Z" transform="translate(-14.3667 -11.1983)"/><path class="cls-17" d="M215.5658,340.6244a3.9649,3.9649,0,0,0,.6939-2.7416c-.0414-.5971-.1834-1.9046-1.0367-1.8707-.7887.0313-.9451,1.1563-1.0025,1.7394a3.7222,3.7222,0,0,0,.7456,2.8356.3.3,0,0,0,.4975-.29,12.5237,12.5237,0,0,1-.4843-1.4735c-.0534-.3276-.1177-1.8925.2532-1.9089.2183-.01.2643,1.4713.26,1.6289a13.6383,13.6383,0,0,1-.3221,1.85c-.0334.2042.2293.4351.3956.23Z" transform="translate(-14.3667 -11.1983)"/><path class="cls-17" d="M207.6187,340.9856a6.4564,6.4564,0,0,1,1.2344,2.0191c.2334.6357.2057,1.3159.4244,1.9408a.2105.2105,0,0,0,.4023,0c.4807-1.456-.7707-3.3219-1.8556-4.1654a.1454.1454,0,0,0-.2055.2055Z" transform="translate(-14.3667 -11.1983)"/><path class="cls-17" d="M225.6364,346.3481c.9816-2.4341,2.4241-4.126,5.1993-4.4022.3764-.0375.3925-.6149,0-.6-2.6333.1-5.4758,2.132-5.609,4.9468-.012.2533.3281.2579.41.0554Z" transform="translate(-14.3667 -11.1983)"/><path class="cls-17" d="M226.5915,338.2164a14.33,14.33,0,0,0,.7247,2.3987,5.8809,5.8809,0,0,0,.7651,1.8363c.1074.1354.3289.0182.3281-.1359a6.75,6.75,0,0,0-.6519-2.1469,12.88,12.88,0,0,0-.8533-2.084c-.1045-.1788-.34-.05-.3127.1318Z" transform="translate(-14.3667 -11.1983)"/><path class="cls-17" d="M217.4524,339.525c4.0282.0672,8.2865-1.0334,12.2663-1.6123.3565-.0518.2055-.595-.15-.5424-3.9579.5866-8.3276.7568-12.1416,1.9706a.0942.0942,0,0,0,.0249.1841Z" transform="translate(-14.3667 -11.1983)"/><path class="cls-17" d="M232.4548,327.1028a217.4317,217.4317,0,0,0,31.0144,2.6842c.4836.0134.4813-.7306,0-.75-10.3716-.4172-20.6349-1.4347-30.9751-2.2242-.1641-.0126-.2038.2615-.0393.29Z" transform="translate(-14.3667 -11.1983)"/><path class="cls-17" d="M247.9253,323.3879c.0238.3555.0713.7126.1228,1.0651a2.3166,2.3166,0,0,0,.255,1.0324.2331.2331,0,0,0,.42-.0549,2.0671,2.0671,0,0,0-.1029-.9749c-.08-.3763-.1713-.7555-.285-1.1231-.0667-.2156-.4261-.1886-.41.0554Z" transform="translate(-14.3667 -11.1983)"/><path class="cls-17" d="M249.1676,323.4024a5.8858,5.8858,0,0,0,.23,1.1729c.0845.3333.1159.7457.4286.9351a.2438.2438,0,0,0,.33-.0866c.1677-.3329-.0172-.6884-.1244-1.0235a5.88,5.88,0,0,0-.4237-1.1174.2385.2385,0,0,0-.4411.12Z" transform="translate(-14.3667 -11.1983)"/><path class="cls-17" d="M249.8271,323.2881c.26.1952.48.4458.7369.6476.2326.1825.4653.3717.715.53.3682.2339.6753-.3277.3359-.5747a8.7363,8.7363,0,0,0-.7855-.487c-.2674-.154-.563-.2591-.8249-.42-.1979-.1213-.3533.1713-.1774.3036Z" transform="translate(-14.3667 -11.1983)"/><path class="cls-17" d="M246.6773,323.4776a3.8129,3.8129,0,0,0-.0821,2.4591.2532.2532,0,0,0,.4584-.06,6.1346,6.1346,0,0,0-.0355-1.0443,6.61,6.61,0,0,1,.075-1.24c.0435-.2678-.34-.3881-.4158-.1146Z" transform="translate(-14.3667 -11.1983)"/><path class="cls-17" d="M247.6125,323.0434a5.438,5.438,0,0,0-1.7257-2.0234c-.525-.317-1.2626-.2188-1.3563.4859-.0917.6888.616,1.2236,1.1223,1.5576a4.3108,4.3108,0,0,0,2.4825.69.3377.3377,0,0,0,0-.675,3.6918,3.6918,0,0,1-2.5893-1.0337c-.2088-.2138-.3426-.4176.0542-.3478.1954.0344.4333.3254.5827.4634a5.7521,5.7521,0,0,1,.9924,1.139.2534.2534,0,0,0,.4372-.2556Z" transform="translate(-14.3667 -11.1983)"/><path class="cls-17" d="M248.3771,323.524a4.1231,4.1231,0,0,0,.4518-2.2077c-.0445-.4672-.1419-1.1274-.7056-1.2149-.6266-.0974-.9348.6111-1.1151,1.0857a5.3774,5.3774,0,0,0-.3336,2.42c.0453.45.7379.4688.7172,0a6.0612,6.0612,0,0,1,.0625-1.4049c.0485-.2572.1822-1.0889.4015-1.2178.3893-.2288.3571.69.35.9726a4.1167,4.1167,0,0,1-.2657,1.3828c-.099.25.3235.43.437.1842Z" transform="translate(-14.3667 -11.1983)"/><path class="cls-17" d="M249.3879,322.4254c4.0045.2028,8.3865-.7742,12.3588-1.3244.427-.0591.3309-.8089-.1028-.76-3.9834.4526-8.4619.5919-12.2965,1.7847a.1531.1531,0,0,0,.0405.2993Z" transform="translate(-14.3667 -11.1983)"/><path class="cls-17" d="M262.4181,323.9141c-2.5856-.6137-5.0456,2.7332-4.5988,5.0726.085.4454.6821.2806.7274-.0984a4.938,4.938,0,0,1,1.21-3.2049,7.8967,7.8967,0,0,1,2.7053-1.4309.1869.1869,0,0,0-.0442-.3384Z" transform="translate(-14.3667 -11.1983)"/><path class="cls-17" d="M258.0729,320.99a9.04,9.04,0,0,0,.8527,5.3121.2479.2479,0,0,0,.4586-.1242,22.3082,22.3082,0,0,0-.4459-2.4588,20.6721,20.6721,0,0,0-.5038-2.7291c-.0539-.1631-.3229-.1931-.3616,0Z" transform="translate(-14.3667 -11.1983)"/><path class="cls-17" d="M239.3729,323.8071c1.6423.884,1.7378,3.033,1.782,4.6505a.3963.3963,0,0,0,.7922,0c-.0554-2.0243-.31-4.126-2.3542-5.0269-.25-.11-.4726.24-.22.3764Z" transform="translate(-14.3667 -11.1983)"/><path class="cls-38" d="M216.9694,337.7007a91.0353,91.0353,0,0,0,11.648-1.7942c.3755-.0725.2191-.6706-.16-.5786-3.8072.9259-7.6771,1.3863-11.5371,2.0137-.2027.0329-.1562.3716.0486.3591Z" transform="translate(-14.3667 -11.1983)"/><path class="cls-38" d="M216.4668,335.9173c3.9113-.0966,7.7671-1.3024,11.63-1.8264.4063-.0551.2475-.73-.1745-.6328-3.7854.8722-7.7772,1.0022-11.503,2.1094a.1789.1789,0,0,0,.0473.35Z" transform="translate(-14.3667 -11.1983)"/><path class="cls-38" d="M215.9758,334.061a56.7138,56.7138,0,0,0,11.5583-1.9517c.328-.0805.1891-.5864-.14-.5063-3.7869.9229-7.6437,1.3728-11.4729,2.0575-.2272.0406-.1732.4081.0542.4Z" transform="translate(-14.3667 -11.1983)"/><path class="cls-38" d="M249.15,321.2306a77.0216,77.0216,0,0,0,11.1727-2.6475.2955.2955,0,0,0-.157-.57c-3.6859,1.0119-7.4433,1.8079-11.1117,2.869-.23.0665-.1272.3785.096.348Z" transform="translate(-14.3667 -11.1983)"/><path class="cls-17" d="M211.654,334.2214c7.221-.7247,14.4163-1.7324,21.5857-2.8519.419-.0654.2411-.7025-.1757-.6374-7.1195,1.1125-14.2591,2.026-21.41,2.9081-.3638.0449-.3756.6189,0,.5812Z" transform="translate(-14.3667 -11.1983)"/><path class="cls-17" d="M216.6085,332.993c-2.3276-11.3256-4.9454-22.5933-7.3777-33.8968-1.2508-5.8128-2.5535-11.6151-3.839-17.42q-.9639-4.3534-1.9443-8.7033c-.5489-2.4492-2.011-5.9216-1.8741-8.3792.1063-1.9085,3.5349-5.8509,5.3342-6.1719,1.24-.2212,3.3291.3535,4.521.5055,3.04.3877,6.0632.8719,9.0807,1.4052,5.479.9683,10.9261,2.1073,16.4019,3.0925,10.2718,1.8482,20.6972,3.22,31.13,2.0293.5137-.0586.5327-.8633,0-.82-13.5695,1.0974-26.7066-1.3-39.9844-3.85-5.8024-1.1147-11.6125-2.21-17.4807-2.9223-3.3293-.4039-8.2022-1.7992-9.96,2.0707-1.4535,3.2.6653,8.33,1.35,11.396q2.2685,10.153,4.5723,20.2979c3.1377,13.8431,6.1865,27.7215,9.5272,41.517.0857.3538.6149.2028.5424-.1495Z" transform="translate(-14.3667 -11.1983)"/><path class="cls-17" d="M243.9471,321.5863a161.0441,161.0441,0,0,1,20.3333-7.011.3425.3425,0,0,0-.182-.66,113.6581,113.6581,0,0,0-20.39,7.1054c-.3127.1478-.0876.6986.2384.5655Z" transform="translate(-14.3667 -11.1983)"/><path class="cls-17" d="M259.829,315.36a254.7567,254.7567,0,0,1-15.4051-34.8954c-.2138-.6207-1.2046-.3549-.99.2729a179.9637,179.9637,0,0,0,15.885,34.9206.2955.2955,0,0,0,.51-.2981Z" transform="translate(-14.3667 -11.1983)"/><path class="cls-17" d="M258.2983,211.7744c5.6852-6.6639,11.0844-13.5687,16.5355-20.424.2175-.2735-.1678-.664-.3878-.3878-5.4614,6.8585-10.9887,13.6672-16.3731,20.5864-.1229.1578.09.3842.2254.2254Z" transform="translate(-14.3667 -11.1983)"/><path class="cls-39" d="M276.5413,178.3486c.3935.0782.7453-.1516,1.1487-.1574a2.1122,2.1122,0,0,1,1.3871.48,1.9047,1.9047,0,1,1-2.8465,2.4854,2.13,2.13,0,0,1,.5777-2.7253c.2764-.2437-.0793-.6876-.3892-.5043a2.6079,2.6079,0,0,0-.685,3.7463,2.6135,2.6135,0,1,0,4.1146-3.2221,2.6735,2.6735,0,0,0-1.7666-.8981c-.5388-.0534-1.449.0107-1.6455.6113a.151.151,0,0,0,.1047.1845Z" transform="translate(-14.3667 -11.1983)"/><path class="cls-39" d="M259.5412,192.3991c.3935.0782.7452-.1516,1.1487-.1574a2.1117,2.1117,0,0,1,1.387.48,1.9047,1.9047,0,1,1-2.8465,2.4854,2.13,2.13,0,0,1,.5778-2.7253c.2764-.2437-.0793-.6876-.3892-.5043a2.6079,2.6079,0,0,0-.6851,3.7463,2.6135,2.6135,0,1,0,4.1146-3.2221,2.6734,2.6734,0,0,0-1.7666-.898c-.5388-.0535-1.4489.0106-1.6454.6112a.151.151,0,0,0,.1047.1845Z" transform="translate(-14.3667 -11.1983)"/><path class="cls-39" d="M297.0938,175.0938c.3934.0783.7452-.1515,1.1486-.1573a2.1122,2.1122,0,0,1,1.3871.48,1.9047,1.9047,0,1,1-2.8466,2.4853,2.13,2.13,0,0,1,.5778-2.7253c.2764-.2437-.0793-.6875-.3891-.5043a2.6082,2.6082,0,0,0-.6852,3.7464,2.6135,2.6135,0,1,0,4.1146-3.2221,2.6735,2.6735,0,0,0-1.7665-.8981c-.5388-.0534-1.449.0106-1.6455.6112a.1509.1509,0,0,0,.1048.1845Z" transform="translate(-14.3667 -11.1983)"/><path class="cls-39" d="M285.276,186.4087a53.7139,53.7139,0,0,0,3.6494-4.5123c.2265-.3019-.2847-.7-.5264-.4062a53.7781,53.7781,0,0,0-3.5205,4.6117.2542.2542,0,0,0,.3975.3068Z" transform="translate(-14.3667 -11.1983)"/><path class="cls-39" d="M292.5542,186.1632a1.3206,1.3206,0,0,0-.3276-.1242.7282.7282,0,0,0-.3085.0224.3408.3408,0,0,0-.2357.4152.7664.7664,0,0,0,.17.29,1.1534,1.1534,0,0,0,.2521.1661.4454.4454,0,0,0,.6542-.5029.4305.4305,0,0,0-.2047-.2661Z" transform="translate(-14.3667 -11.1983)"/><path class="cls-39" d="M283.8058,177.8905l.0627.1242a.302.302,0,0,0,.5181,0l.0627-.1242a.3832.3832,0,0,0,0-.3762.3727.3727,0,0,0-.6435,0,.3829.3829,0,0,0,0,.3762Z" transform="translate(-14.3667 -11.1983)"/><path class="cls-39" d="M299.1645,184.5209q.4862.55.9722,1.1a5.1465,5.1465,0,0,0,.9567.99c.2227.1432.4761-.1359.3528-.3527a5.1609,5.1609,0,0,0-.94-1.0069q-.522-.5139-1.0438-1.0282c-.1952-.1922-.477.0962-.2983.2983Z" transform="translate(-14.3667 -11.1983)"/><path class="cls-39" d="M304.1557,181.9391l-.0076.0509-.01.07a.3537.3537,0,0,0,.0491.249.3784.3784,0,0,0,.1352.1352.3774.3774,0,0,0,.38,0,.3789.3789,0,0,0,.1351-.1352.2868.2868,0,0,0,.0424-.0969l.0136-.1014a.8128.8128,0,0,0-.0166-.1209l-.0076-.0509-.0373-.0885a.28.28,0,0,0-.0954-.1039.1852.1852,0,0,0-.0817-.0476.279.279,0,0,0-.1427-.0319l-.0984.0132-.0885.0373a.4144.4144,0,0,0-.17.2214Z" transform="translate(-14.3667 -11.1983)"/><path class="cls-39" d="M290.834,171.44c.3049.6921.61,1.3839.9237,2.0721a7.4925,7.4925,0,0,0,.9277,1.7923c.1693.2006.4442-.0208.4035-.2348a7.5943,7.5943,0,0,0-.8222-1.855c-.3356-.6742-.68-1.3438-1.0239-2.0136-.1418-.2758-.5289-.0337-.4088.239Z" transform="translate(-14.3667 -11.1983)"/><path class="cls-39" d="M278.8166,174.171c.4816-.4033.9689-.7987,1.4582-1.1925a10.5432,10.5432,0,0,0,1.442-1.2088c.19-.2215-.0491-.5811-.3238-.42a10.1927,10.1927,0,0,0-1.414,1.1766c-.5.4359-1.0016.87-1.51,1.2963-.2431.2036.1066.55.348.348Z" transform="translate(-14.3667 -11.1983)"/><path class="cls-39" d="M267.719,180.74c.5831.6745,1.1536,1.3579,1.7209,2.0459a18.1036,18.1036,0,0,0,1.7357,2.031c.2728.2446.76-.0747.5337-.4118a43.8155,43.8155,0,0,0-3.5992-4.0562c-.2346-.2691-.6228.1232-.3911.3911Z" transform="translate(-14.3667 -11.1983)"/><path class="cls-39" d="M270.5588,176.2208a.3377.3377,0,0,0,0-.675.3377.3377,0,0,0,0,.675Z" transform="translate(-14.3667 -11.1983)"/><path class="cls-39" d="M265.9443,186.9183l-.0071.1062a.3879.3879,0,0,0,.3774.3773.3813.3813,0,0,0,.2668-.1105.3744.3744,0,0,0,.1105-.2668l-.007-.1062a.3806.3806,0,0,0-.37-.37.3745.3745,0,0,0-.2619.1085l-.0579.0749a.3687.3687,0,0,0-.05.1869Z" transform="translate(-14.3667 -11.1983)"/><path class="cls-39" d="M285.4137,169.3028a.3166.3166,0,0,0,0-.6328.3166.3166,0,0,0,0,.6328Z" transform="translate(-14.3667 -11.1983)"/><path class="cls-39" d="M296.0155,171.1428l.3033-.0543a.3095.3095,0,0,0,0-.5966l-.3033-.0543a.3749.3749,0,0,0-.3558.0941.3657.3657,0,0,0,.3558.6111Z" transform="translate(-14.3667 -11.1983)"/><path class="cls-39" d="M305.173,172.9352a32.8251,32.8251,0,0,0-1.2194,3.3807c-.0776.3417.43.6006.5955.251a33.53,33.53,0,0,0,1.1573-3.4847c.1156-.3379-.4169-.4812-.5334-.147Z" transform="translate(-14.3667 -11.1983)"/><path class="cls-39" d="M305.0721,191.4994a12.9987,12.9987,0,0,0,3.1256-2.9264c.2134-.3332-.2525-.6506-.5264-.4062-.5091.4542-.9255,1.0269-1.4071,1.5136a18.9235,18.9235,0,0,1-1.5159,1.3994c-.233.189.0833.6053.3238.42Z" transform="translate(-14.3667 -11.1983)"/><path class="cls-39" d="M292.9117,189.8219a2.563,2.563,0,0,0-2.19,3.1222,2.5117,2.5117,0,0,0,3.32,1.6146,2.6642,2.6642,0,0,0,1.3457-3.33,2.5093,2.5093,0,0,0-3.3179-1.221c-.2911.1278-.082.6335.2185.5183a2.18,2.18,0,0,1,2.5762.7293,1.9438,1.9438,0,0,1-.9824,2.8428,2.1312,2.1312,0,0,1-2.5531-1.321,2.07,2.07,0,0,1,1.6967-2.5435c.27-.0409.1555-.452-.1134-.4113Z" transform="translate(-14.3667 -11.1983)"/><path class="cls-39" d="M281.21,190.4813c.9285,1.1928,1.8315,2.4089,2.7837,3.5827.2654.3272.7317-.14.4641-.464-.9572-1.16-1.9656-2.28-2.9462-3.42-.1822-.2119-.466.09-.3016.3016Z" transform="translate(-14.3667 -11.1983)"/><path class="cls-39" d="M275.9836,196.48a.47.47,0,0,0,.1017.0138h.0052l.0961-.013a.3764.3764,0,0,0,.0985-.0411.3916.3916,0,0,0,.1368-.1366.5563.5563,0,0,0,.0431-.0991l-.0935.16.0047-.005a.9141.9141,0,0,0,.06-.0784l.0058-.01a.55.55,0,0,0,.0417-.1015.2941.2941,0,0,0,.0072-.156.1975.1975,0,0,0-.0076-.0538.2907.2907,0,0,0-.0691-.1314.3052.3052,0,0,0-.1149-.1061l-.006-.0036a.7861.7861,0,0,0-.0946-.04.7734.7734,0,0,0-.1047-.0144h-.0071a.4079.4079,0,0,0-.2013.0548l-.0763.059a.2839.2839,0,0,0-.0781.1215.1881.1881,0,0,0-.0257.0952.2856.2856,0,0,0,.0067.15l.0381.09.059.0764a.2819.2819,0,0,0,.1214.078.2851.2851,0,0,0,.1454.0325l.0056,0-.1006-.0135.0072.002-.0908-.0384.006.0036-.0773-.06.0047.005-.06-.0775.0035.0061-.0388-.092a.2978.2978,0,0,0,.0413.0992.4029.4029,0,0,0,.1416.142l-.0778-.06.0082.0082-.059-.0764.0086.0143-.037-.0878.0023.0068v-.1932l-.0024.0074.0366-.0867-.0049.0086.0567-.0734-.005.005.0733-.0566-.006.0036.0864-.0364-.0072.0018.096-.0129H276.08a.4021.4021,0,0,0-.2553.1057l-.0564.0731a.2686.2686,0,0,0-.0428.1342.1815.1815,0,0,0,0,.0959.2683.2683,0,0,0,.0428.1342l.0564.0731a.3611.3611,0,0,0,.1593.0928Z" transform="translate(-14.3667 -11.1983)"/><path class="cls-39" d="M274.0986,199.1721a2.7339,2.7339,0,0,0-2.4386,3.0561,2.8272,2.8272,0,0,0,2.9628,2.3115,2.8565,2.8565,0,0,0,2.4936-2.8482,2.7974,2.7974,0,0,0-2.8451-2.621.333.333,0,0,0,0,.6656,2.2353,2.2353,0,0,1,2.1146,1.9554,2.0438,2.0438,0,0,1-4.0812.2275,2.2527,2.2527,0,0,1,1.9248-2.2723c.3141-.0477.1776-.5165-.1309-.4746Z" transform="translate(-14.3667 -11.1983)"/><path class="cls-39" d="M264.4478,206.7089a23.05,23.05,0,0,0,1.2582,2.2406,5.323,5.323,0,0,0,1.3991,1.7c.2267.1371.584-.0953.4785-.3679a9.56,9.56,0,0,0-1.2929-1.83,19.1444,19.1444,0,0,1-1.2925-2.0642c-.1913-.364-.7372-.0425-.55.3217Z" transform="translate(-14.3667 -11.1983)"/><path class="cls-39" d="M267.3365,216.0214a11.8571,11.8571,0,0,0,4.8376-2.0093c.22-.1894-.0143-.6214-.2941-.5053-.7115.2954-1.3514.743-2.0522,1.07a14.7532,14.7532,0,0,1-2.6284.9479.258.258,0,0,0,.1371.4972Z" transform="translate(-14.3667 -11.1983)"/><path class="cls-39" d="M269.6038,207.1a.34.34,0,0,0,0-.68.34.34,0,0,0,0,.68Z" transform="translate(-14.3667 -11.1983)"/><path class="cls-39" d="M275.97,214.3622a.387.387,0,0,0,0-.7735.387.387,0,0,0,0,.7735Z" transform="translate(-14.3667 -11.1983)"/><path class="cls-39" d="M260.4672,215.5786l.3448.2918a.2789.2789,0,0,0,.3944-.3945l-.2917-.3448a.3164.3164,0,0,0-.4475.4475Z" transform="translate(-14.3667 -11.1983)"/><path class="cls-39" d="M272.1955,219.9656a2.2529,2.2529,0,0,0-2.822,1.9367,2.6435,2.6435,0,0,0,2.7793,2.8359,2.9156,2.9156,0,0,0,2.7734-2.5972,2.4878,2.4878,0,0,0-2.6692-2.6782c-.4419.0429-.4591.7232,0,.7031,2.4285-.1059,2.5267,3.2477.3384,3.7744a2.0519,2.0519,0,0,1-2.5177-1.4559,1.7251,1.7251,0,0,1,2.0007-2.0939c.274.0466.3973-.3553.1171-.4249Z" transform="translate(-14.3667 -11.1983)"/><path class="cls-39" d="M264.4634,223.4177c.0386.704.0795,1.4078.1116,2.112a7.091,7.091,0,0,0,.1755,1.8812c.0754.23.4652.2772.5153,0a7.055,7.055,0,0,0-.0721-1.8812c-.0641-.7035-.1195-1.4078-.1772-2.112-.0287-.35-.5728-.3585-.5531,0Z" transform="translate(-14.3667 -11.1983)"/><path class="cls-39" d="M260,230.3709c1.1074,1.1105,2.1719,2.3032,3.3752,3.31a.3658.3658,0,0,0,.517-.517c-1.0413-1.1735-2.2654-2.2023-3.4082-3.2766-.3206-.3012-.7962.1709-.484.484Z" transform="translate(-14.3667 -11.1983)"/><path class="cls-39" d="M273.1054,235.2481a.4761.4761,0,0,0,0-.9516.4761.4761,0,0,0,0,.9516Z" transform="translate(-14.3667 -11.1983)"/><path class="cls-39" d="M261.7985,240.5486a.9155.9155,0,0,0-.256.3878.4862.4862,0,0,0,.594.594.9156.9156,0,0,0,.3879-.2559.5437.5437,0,0,0,.15-.363.522.522,0,0,0-.15-.3629.5165.5165,0,0,0-.3629-.15l-.1365.0184a.5137.5137,0,0,0-.2265.132Z" transform="translate(-14.3667 -11.1983)"/><path class="cls-39" d="M257.81,200.6677a46.408,46.408,0,0,0,5.3092.3577c.2726-.01.3654-.4544.0679-.5018a47.0906,47.0906,0,0,0-5.3771-.2919c-.2826-.0119-.2767.4143,0,.436Z" transform="translate(-14.3667 -11.1983)"/><path class="cls-39" d="M250.5861,200.4406a22.55,22.55,0,0,0,.0418,6.2926.3061.3061,0,0,0,.5985-.081,50.1847,50.1847,0,0,1-.195-6.2116c.0236-.2859-.421-.2837-.4453,0Z" transform="translate(-14.3667 -11.1983)"/><path class="cls-39" d="M254.9875,206.7849a.3588.3588,0,0,0,0-.7172.3588.3588,0,0,0,0,.7172Z" transform="translate(-14.3667 -11.1983)"/><path class="cls-39" d="M253.6617,195.4713c-.0007.06-.0051.1221-.0022.1825a1.8356,1.8356,0,0,0,.0358.2324.2861.2861,0,0,0,.5515,0,1.6893,1.6893,0,0,0,.0359-.2324c.0021-.0606-.0015-.1219-.0023-.1825a.3094.3094,0,0,0-.6187,0Z" transform="translate(-14.3667 -11.1983)"/><path class="cls-39" d="M261.0861,187.0657a.2908.2908,0,0,0,0-.5813.2908.2908,0,0,0,0,.5813Z" transform="translate(-14.3667 -11.1983)"/><path class="cls-39" d="M271.8153,191.6137a.3213.3213,0,0,0,0-.6422.3213.3213,0,0,0,0,.6422Z" transform="translate(-14.3667 -11.1983)"/><path class="cls-39" d="M244.8992,213.8c1.4848.7166,2.9287,1.6216,4.4679,2.212.3785.1452.6066-.4463.2709-.6425-1.3983-.8175-2.9878-1.3653-4.45-2.0633-.33-.1576-.6208.3335-.2887.4938Z" transform="translate(-14.3667 -11.1983)"/><path class="cls-39" d="M245.5006,211.279a.3353.3353,0,0,0,0-.67.3353.3353,0,0,0,0,.67Z" transform="translate(-14.3667 -11.1983)"/><path class="cls-39" d="M244.823,220.9679a.4245.4245,0,0,0,0-.8485.4245.4245,0,0,0,0,.8485Z" transform="translate(-14.3667 -11.1983)"/><path class="cls-39" d="M237.4465,221.5455a1.6837,1.6837,0,0,1,1.757,2.87,1.6494,1.6494,0,0,1-2.2258-.3912,1.9389,1.9389,0,0,1,.26-2.2609c.2316-.3017-.2426-.6006-.497-.3834a2.2665,2.2665,0,0,0-.1314,3.15,2.4459,2.4459,0,0,0,3.1249.3591,2.2732,2.2732,0,0,0-2.5361-3.7681c-.2791.1556-.0333.564.2485.425Z" transform="translate(-14.3667 -11.1983)"/><path class="cls-39" d="M239.368,215.81l-.01.0537a.49.49,0,0,0,.0016.25l.04.0945a.2983.2983,0,0,0,.1019.111.197.197,0,0,0,.0872.0508.2975.2975,0,0,0,.1525.0341l.1051-.0141.0945-.04a.4435.4435,0,0,0,.1819-.2364l.0043-.0162.0143-.1064a.557.557,0,0,0-.0171-.1273l-.01-.0537-.039-.0924a.293.293,0,0,0-.1-.1085.1939.1939,0,0,0-.0853-.05.2916.2916,0,0,0-.149-.0333l-.1028.0138-.0924.039a.4325.4325,0,0,0-.1777.2311Z" transform="translate(-14.3667 -11.1983)"/><path class="cls-39" d="M231.9936,219.11a29.3282,29.3282,0,0,0-1.54,4.4176c-.0575.3285.3868.57.57.24a29.6608,29.6608,0,0,0,1.612-4.4808c.143-.4047-.5-.5787-.6419-.177Z" transform="translate(-14.3667 -11.1983)"/><path class="cls-39" d="M227.6564,220.7584a.4409.4409,0,0,0,0-.8812.4409.4409,0,0,0,0,.8812Z" transform="translate(-14.3667 -11.1983)"/><path class="cls-39" d="M220.8022,216.2525a2.2791,2.2791,0,0,0,1.2006,2.5356,2.0279,2.0279,0,0,0,2.0708-3.4635,1.8256,1.8256,0,0,0-2.5346.4234c-.1869.2809.2205.5658.4528.3493a1.4605,1.4605,0,0,1,1.7575-.2912,1.3411,1.3411,0,0,1,.2635,1.9325c-1.0952,1.33-3.0017.08-2.8193-1.4332.0267-.221-.3541-.2742-.3913-.0529Z" transform="translate(-14.3667 -11.1983)"/><path class="cls-39" d="M213.0686,213.0442l.5443,2.1461a7.789,7.789,0,0,0,.5779,1.885.288.288,0,0,0,.5328-.1443,7.8263,7.8263,0,0,0-.4912-1.9115l-.6576-2.1149a.2627.2627,0,0,0-.5062.14Z" transform="translate(-14.3667 -11.1983)"/><path class="cls-39" d="M208.231,215.2623a.3658.3658,0,0,0,0-.7312.3658.3658,0,0,0,0,.7312Z" transform="translate(-14.3667 -11.1983)"/><path class="cls-40" d="M206.3853,210.0452s-6.6539-3.5067-7.5193-3.3729-8.5645,4.0365-7.6185,4.3025,5.5662-1.7418,5.5662-1.7418-5.6168,3.3068-4.2625,3.4177,4.4572-1.8483,4.4572-1.8483-1.67,2.6578-1.0879,2.9218,1.6891,1.5921,1.6418.814a3.2709,3.2709,0,0,0-.5539-1.4841l.9065-1.0662,5.2136,2.7918Z" transform="translate(-14.3667 -11.1983)"/><path class="cls-41" d="M196.0358,213.3874a12.5592,12.5592,0,0,1,.8987-1.8878,3.169,3.169,0,0,1,.4995-.7327c.4531-.3834.8253-.1155,1.2858.0731.2259.0926.318-.2415.1535-.3641-1.65-1.2288-2.9342,1.57-3.1629,2.8218a.1689.1689,0,0,0,.3254.09Z" transform="translate(-14.3667 -11.1983)"/><path class="cls-41" d="M192.4718,212.339c1.137-.7691,2.22-1.6153,3.33-2.4229,1.0433-.7591,1.1847-.965,2.9318-.7212.6026.084,1.1021.29,1.7186.3184.2.0092.2-.3025,0-.3112-1.56-.0681-2.6745-.931-4.1012-.0133a46.9162,46.9162,0,0,0-3.9972,2.997c-.0856.0693.0267.215.1182.1532Z" transform="translate(-14.3667 -11.1983)"/><path class="cls-42" d="M261.32,98.2531c-.0373.4208-.4322,15.6525-.4322,15.6525l19.8256-3.593.2329,3.3552,2.2372-3.7121,3.9584-.4039L288.4179,95.14Z" transform="translate(-14.3667 -11.1983)"/><path class="cls-6" d="M270.7383,100.8945l.9551-.1626.8427,4.9522c.334,1.9658-.53,2.7339-1.8037,2.9507a3.1481,3.1481,0,0,1-1.0508-.0015l.0108-.8042a2.3019,2.3019,0,0,0,.8252.0059c.8564-.1455,1.2959-.6153,1.05-2.0645Z" transform="translate(-14.3667 -11.1983)"/><path class="cls-6" d="M274.2148,106.7207a3.4327,3.4327,0,0,0,1.795.1924c.9775-.1665,1.46-.7793,1.333-1.5264-.1172-.6924-.5791-1.02-1.6446-1.2344-1.2812-.2221-2.1337-.7211-2.3115-1.7651a2.1605,2.1605,0,0,1,2.0528-2.416,3.4139,3.4139,0,0,1,1.6972.083l-.1308.8252a2.9859,2.9859,0,0,0-1.4659-.1123c-1.01.1719-1.291.84-1.205,1.3462.1171.6924.625.956,1.7138,1.1777,1.334.27,2.0742.7656,2.2588,1.8526.1944,1.1425-.4834,2.2734-2.2295,2.5708a3.8881,3.8881,0,0,1-1.9687-.15Z" transform="translate(-14.3667 -11.1983)"/><path class="cls-43" d="M71.421,114.534c0,.4224.95,15.6295.95,15.6295l19.4313-5.328.528,3.3216,1.9009-3.895,3.9074-.7517V109.0425Z" transform="translate(-14.3667 -11.1983)"/><path class="cls-6" d="M82.1943,123.22a3.4666,3.4666,0,0,1-1.33.5669,2.5187,2.5187,0,0,1-3.2046-2.0625,2.6806,2.6806,0,0,1,2.1113-3.3872,2.8782,2.8782,0,0,1,1.3-.0527l-.0361.59a2.5416,2.5416,0,0,0-1.11.0254,2.003,2.003,0,0,0-1.5527,2.6357,1.9585,1.9585,0,0,0,2.5024,1.6494,2.7913,2.7913,0,0,0,1.0562-.4711Z" transform="translate(-14.3667 -11.1983)"/><path class="cls-6" d="M82.8042,122.3906a2.4614,2.4614,0,0,0,1.2949.064c.6934-.1587,1.0147-.6167.8931-1.147-.1128-.4912-.4575-.7085-1.229-.8174-.9268-.1084-1.5586-.4311-1.7285-1.1714a1.5511,1.5511,0,0,1,1.372-1.8149,2.458,2.458,0,0,1,1.22-.01l-.06.5957a2.1615,2.1615,0,0,0-1.0547-.02c-.7178.1646-.8926.6558-.81,1.0142.1128.4912.4878.66,1.2769.7734.9673.14,1.5176.4654,1.6943,1.2369.1861.8105-.2534,1.6489-1.4931,1.9331a2.7821,2.7821,0,0,1-1.4165-.0279Z" transform="translate(-14.3667 -11.1983)"/><path class="cls-6" d="M86.65,121.5088a2.46,2.46,0,0,0,1.2949.0644c.6934-.1591,1.0142-.6171.8926-1.1474-.1123-.4912-.457-.708-1.2285-.8174-.9277-.1079-1.56-.4307-1.729-1.1709a1.5511,1.5511,0,0,1,1.3725-1.8154,2.4614,2.4614,0,0,1,1.22-.0093l-.0611.5957a2.16,2.16,0,0,0-1.0547-.02c-.7168.1645-.8916.6558-.809,1.0141.1127.4913.4877.66,1.2768.7735.9668.14,1.5171.4648,1.6943,1.2363.1856.8106-.2539,1.6494-1.4931,1.9336a2.7855,2.7855,0,0,1-1.417-.0278Z" transform="translate(-14.3667 -11.1983)"/><path class="cls-11" d="M148.1922,195.3019s12.19,3.6181,24.0076,1.1645,20.704-4.5606,20.704-4.5606L171.1365,188.54Z" transform="translate(-14.3667 -11.1983)"/><polygon class="cls-44" points="210.997 160.992 115.147 180.999 100.12 110.053 199.962 93.684 210.997 160.992"/><polygon class="cls-45" points="209.032 155.239 115.414 174.389 101.807 111.612 199.26 95.635 209.032 155.239"/><rect class="cls-6" x="127.7132" y="134.9654" width="10.4717" height="1.4561" transform="translate(-36.4503 14.7089) rotate(-10.2811)"/><rect class="cls-6" x="184.1218" y="129.0649" width="10.4717" height="1.4561" transform="translate(-34.4915 24.6818) rotate(-10.2811)"/><rect class="cls-46" x="143.4306" y="130.2367" width="32.8387" height="1.5701" transform="translate(-35.1839 19.4338) rotate(-10.2807)"/><rect class="cls-6" x="157.6177" y="132.6653" width="24.3368" height="1.5701" transform="translate(-35.4577 21.246) rotate(-10.2807)"/><rect class="cls-46" x="165.4169" y="133.7867" width="45.0093" height="1.6505" transform="translate(-35.374 24.5015) rotate(-10.2807)"/><rect class="cls-6" x="132.8339" y="153.3998" width="10.4718" height="1.4561" transform="translate(-39.658 15.9186) rotate(-10.281)"/><rect class="cls-6" x="196.4501" y="163.8728" width="10.4717" height="1.4561" transform="translate(-40.505 27.4394) rotate(-10.2807)"/><rect class="cls-6" x="189.2425" y="147.4993" width="10.4717" height="1.4561" transform="translate(-37.6994 25.8917) rotate(-10.2811)"/><rect class="cls-46" x="148.5512" y="148.6711" width="32.8388" height="1.5701" transform="translate(-38.3916 20.6436) rotate(-10.2807)"/><rect class="cls-6" x="162.7384" y="151.0997" width="24.3368" height="1.5701" transform="translate(-38.6655 22.4559) rotate(-10.2807)"/><rect class="cls-46" x="170.5376" y="152.2212" width="45.0092" height="1.6505" transform="translate(-38.5818 25.7114) rotate(-10.2807)"/><rect class="cls-6" x="124.7797" y="126.8001" width="45.0092" height="1.6505" transform="translate(-34.7794 17.1365) rotate(-10.2806)"/><rect class="cls-46" x="135.7001" y="166.2524" width="45.0092" height="1.6505" transform="translate(-41.6451 19.7189) rotate(-10.2806)"/><rect class="cls-6" x="136.7614" y="172.449" width="36.3032" height="1.6505" transform="translate(-42.8041 19.2312) rotate(-10.2807)"/><rect class="cls-46" x="174.9006" y="166.997" width="19.8846" height="1.6505" transform="translate(-41.3508 24.4857) rotate(-10.2809)"/><path class="cls-17" d="M115.884,122.89l13.607,62.7768a.3057.3057,0,0,0,.369.21l81.8039-16.7332,11.8147-2.4167a.307.307,0,0,0,.2095-.3691l-9.7721-59.6044a.3064.3064,0,0,0-.3691-.21l-85.23,13.9736-12.2233,2.004c-.38.0623-.2189.6406.16.5786l67.4207-11.0537,18.4785-3.03c3.3512-.5494,7.1312-1.7386,10.53-1.7264,1.0929.0039.6843-.1892.6859-.1874.6231.6919.5777,3.5237.7234,4.4122l3.0916,18.8573,3.5812,21.8432,1.349,8.2281c.2542,1.5506,1.0652,3.7572.8739,5.33-.1557,1.2808.72-.0685-.3108.5056-.9734.5421-2.7345.5593-3.8173.7808l-14.7871,3.0247L160.24,179.0512l-18.7244,3.83c-3.4571.7071-7.2362,2.0233-10.7633,2.2016-1.493.0755-.369.5337-.7871-.0586-.7864-1.1141-.8371-3.862-1.127-5.2l-4.6276-21.35-7.7476-35.7444C116.3809,122.3536,115.8023,122.5132,115.884,122.89Z" transform="translate(-14.3667 -11.1983)"/><path class="cls-13" d="M169.3564,183.9644s2.4745,12.1223,2.8434,12.502,22.2384-4.9312,22.2384-4.9312l-2.7019-12.3363Z" transform="translate(-14.3667 -11.1983)"/><path class="cls-17" d="M194.2891,179.6255c.9765,3.6859,4.8751,4.2882,8.0944,3.2057,4.0057-1.347,7.2054-4.3671,11.2933-5.7236a32.3511,32.3511,0,0,1,15.5634-.93c.35.0562.5091-.4684.15-.5424a30.5836,30.5836,0,0,0-14.3434.4508c-5.0949,1.4-17.2232,11.3079-20.459,3.4572-.0736-.1786-.3509-.1162-.2983.0822Z" transform="translate(-14.3667 -11.1983)"/><rect class="cls-6" x="198.2163" y="96.4335" width="55.1274" height="35.4864" transform="translate(-31.119 30.9298) rotate(-10.2807)"/><rect class="cls-47" x="202.8394" y="112.7164" width="10.4717" height="1.4561" transform="translate(-31.2725 27.7581) rotate(-10.2806)"/><rect class="cls-47" x="205.8129" y="124.5362" width="10.4717" height="1.4562" transform="translate(-33.3343 28.4788) rotate(-10.2807)"/><rect class="cls-47" x="218.0612" y="120.5286" width="28.5691" height="1.536" transform="translate(-32.2843 32.216) rotate(-10.2807)"/><rect class="cls-47" x="201.2479" y="104.8695" width="32.8388" height="1.5702" transform="translate(-29.7283 29.3452) rotate(-10.2807)"/><rect class="cls-47" x="204.2853" y="116.5312" width="32.8387" height="1.5702" transform="translate(-31.7608 30.0746) rotate(-10.2807)"/><polygon class="cls-48" points="182.068 95.635 187.459 125.356 204.645 122.252 205.537 126.701 185.546 130.786 177.642 97.343 182.068 95.635"/><polygon class="cls-49" points="157.833 185.268 145.878 182.081 156.31 179.045 157.833 185.268"/><path class="cls-17" d="M181.7937,178.7994l.007-.0613a1.7919,1.7919,0,0,0-1.7437-1.7437l-.4636.0623a1.7411,1.7411,0,0,0-.7694.4484l-.2727.3529a1.7365,1.7365,0,0,0-.2381.88l.0071.0613a1.785,1.785,0,0,0,1.7367,1.7367l.4617-.062a1.7354,1.7354,0,0,0,.7663-.4467l.2716-.3515a1.7285,1.7285,0,0,0,.2371-.8765Z" transform="translate(-14.3667 -11.1983)"/><path class="cls-31" d="M101.1272,135.2522c0,.4225.95,15.63.95,15.63l19.4313-5.3281.5281,3.3216,1.9008-3.895,3.9074-.7516V129.7608Z" transform="translate(-14.3667 -11.1983)"/><path class="cls-6" d="M104.979,139.67a8.0787,8.0787,0,0,1,1.291-.3569,2.21,2.21,0,0,1,1.5689.15,1.4478,1.4478,0,0,1,.6787,1.0161,1.5914,1.5914,0,0,1-.1875,1.21,2.2361,2.2361,0,0,1-1.5044.8941,2.37,2.37,0,0,1-.5586.06l.4131,2.12-.6826.1333Zm1.18,2.4175a2.3479,2.3479,0,0,0,.5762-.0552c.8242-.1606,1.249-.6582,1.1064-1.3886-.1357-.6983-.6963-.9385-1.45-.792a2.8857,2.8857,0,0,0-.6333.18Z" transform="translate(-14.3667 -11.1983)"/><path class="cls-6" d="M109.8286,138.66l.4312,2.2128,2.5586-.4985-.4312-2.2129.69-.1343,1.0308,5.29-.69.1343-.4829-2.48-2.5586.4985.4829,2.4805-.6826.1328-1.0308-5.29Z" transform="translate(-14.3667 -11.1983)"/><path class="cls-6" d="M114.28,137.8579a8.0787,8.0787,0,0,1,1.291-.3569,2.21,2.21,0,0,1,1.5688.15,1.4476,1.4476,0,0,1,.6788,1.0161,1.591,1.591,0,0,1-.1875,1.21,2.2375,2.2375,0,0,1-1.5044.8941,2.344,2.344,0,0,1-.5586.06l.4131,2.12-.6827.1333Zm1.18,2.4175a2.3275,2.3275,0,0,0,.5757-.0552c.8247-.1606,1.2485-.6577,1.1064-1.3882-.1362-.6982-.6963-.9389-1.45-.792a2.8687,2.8687,0,0,0-.6328.18Z" transform="translate(-14.3667 -11.1983)"/></svg>